SplineFontDB: 3.2
FontName: SixOnePixelsFont
FullName: Six One Pixels
FamilyName: SixOnePixels
Weight: Regular
Copyright: Copyright (c) 2024, Mounir Tohami (https://mounirtohami.itch.io | whalesstate@gmail.com)
Version: 001.000
ItalicAngle: 0
UnderlinePosition: 0
UnderlineWidth: 0
Ascent: 6
Descent: 1
InvalidEm: 0
sfntRevision: 0x00010000
LayerCount: 2
Layer: 0 1 "Back" 1
Layer: 1 1 "Fore" 0
XUID: [1021 465 1097079576 6876]
StyleMap: 0x0040
FSType: 4
OS2Version: 2
OS2_WeightWidthSlopeOnly: 0
OS2_UseTypoMetrics: 0
CreationTime: 1707066177
ModificationTime: 1707070080
PfmFamily: 81
TTFWeight: 400
TTFWidth: 5
LineGap: 0
VLineGap: 0
Panose: 0 0 4 0 0 0 0 0 0 0
OS2TypoAscent: 6
OS2TypoAOffset: 0
OS2TypoDescent: -1
OS2TypoDOffset: 0
OS2TypoLinegap: 0
OS2WinAscent: 6
OS2WinAOffset: 0
OS2WinDescent: 1
OS2WinDOffset: 0
HheadAscent: 6
HheadAOffset: 0
HheadDescent: -1
HheadDOffset: 0
OS2SubXSize: 4
OS2SubYSize: 4
OS2SubXOff: 0
OS2SubYOff: 0
OS2SupXSize: 4
OS2SupYSize: 4
OS2SupXOff: 0
OS2SupYOff: 4
OS2StrikeYSize: 0
OS2StrikeYPos: 1
OS2CapHeight: 6
OS2XHeight: 5
OS2Vendor: 'FSTR'
OS2CodePages: 200101ff.cdff0000
OS2UnicodeRanges: 00000001.00000000.00000000.00000000
MarkAttachClasses: 1
DEI: 91125
ShortTable: maxp 16
  1
  0
  96
  36
  9
  0
  0
  2
  0
  0
  0
  0
  0
  0
  0
  0
EndShort
LangName: 1033 "" "" "Regular" "" "" "Version 1.0"
Encoding: UnicodeBmp
UnicodeInterp: none
NameList: AGL For New Fonts
DisplaySize: -48
AntiAlias: 1
FitToEm: 0
WinInfo: 44 22 14
BeginPrivate: 0
EndPrivate
BeginChars: 65537 96

StartChar: .notdef
Encoding: 65536 -1 0
Width: 5
GlyphClass: 1
Flags: W
LayerCount: 2
Fore
SplineSet
4.375 0.1708984375 m 1,0,-1
 2.310546875 2.9326171875 l 1,1,-1
 0.232421875 0.1708984375 l 1,2,-1
 4.375 0.1708984375 l 1,0,-1
0.1708984375 0.232421875 m 1,3,4
 0.177734375 0.232421875 0.177734375 0.232421875 2.2421875 2.994140625 c 1,5,-1
 0.1708984375 5.7626953125 l 1,6,-1
 0.1708984375 0.232421875 l 1,3,4
4.443359375 0.232421875 m 1,7,-1
 4.443359375 5.7626953125 l 1,8,9
 4.443359375 5.755859375 4.443359375 5.755859375 2.3720703125 2.994140625 c 1,10,-1
 4.443359375 0.232421875 l 1,7,-1
2.310546875 3.0625 m 1,11,-1
 4.375 5.82421875 l 1,12,-1
 0.232421875 5.82421875 l 1,13,-1
 2.310546875 3.0625 l 1,11,-1
0 0 m 1,14,-1
 0 6.001953125 l 1,15,-1
 4.6142578125 6.001953125 l 1,16,-1
 4.6142578125 0 l 1,17,-1
 0 0 l 1,14,-1
EndSplineSet
EndChar

StartChar: exclam
Encoding: 33 33 2
Width: 3
GlyphClass: 1
Flags: W
LayerCount: 2
Fore
SplineSet
0.998046875 0 m 1,0,-1
 0.998046875 0.998046875 l 1,1,-1
 1.99609375 0.998046875 l 1,2,-1
 1.99609375 0 l 1,3,-1
 0.998046875 0 l 1,0,-1
0.998046875 1.99609375 m 1,4,-1
 0.998046875 6.001953125 l 1,5,-1
 1.99609375 6.001953125 l 1,6,-1
 1.99609375 1.99609375 l 1,7,-1
 0.998046875 1.99609375 l 1,4,-1
EndSplineSet
EndChar

StartChar: quotedbl
Encoding: 34 34 3
Width: 4
GlyphClass: 1
Flags: W
LayerCount: 2
Fore
SplineSet
0 3.9990234375 m 1,0,1
 0 4.005859375 0 4.005859375 0 6.001953125 c 1,2,-1
 0.998046875 6.001953125 l 1,3,-1
 0.998046875 3.9990234375 l 1,4,-1
 0 3.9990234375 l 1,0,1
1.99609375 3.9990234375 m 1,5,6
 1.99609375 4.005859375 1.99609375 4.005859375 1.99609375 6.001953125 c 1,7,-1
 2.994140625 6.001953125 l 1,8,-1
 2.994140625 3.9990234375 l 1,9,-1
 1.99609375 3.9990234375 l 1,5,6
EndSplineSet
EndChar

StartChar: numbersign
Encoding: 35 35 4
Width: 6
GlyphClass: 1
Flags: W
LayerCount: 2
Fore
SplineSet
2.994140625 1.99609375 m 1,0,-1
 2.994140625 3.9990234375 l 1,1,-1
 1.99609375 3.9990234375 l 1,2,3
 1.99609375 3.9921875 1.99609375 3.9921875 1.99609375 1.99609375 c 1,4,-1
 2.994140625 1.99609375 l 1,0,-1
0.998046875 0 m 1,5,-1
 0.998046875 0.998046875 l 1,6,-1
 0 0.998046875 l 1,7,-1
 0 1.99609375 l 1,8,-1
 0.998046875 1.99609375 l 1,9,-1
 0.998046875 3.9990234375 l 1,10,-1
 0 3.9990234375 l 1,11,-1
 0 4.9970703125 l 1,12,-1
 0.998046875 4.9970703125 l 1,13,14
 0.998046875 5.00390625 0.998046875 5.00390625 0.998046875 6.001953125 c 1,15,-1
 1.99609375 6.001953125 l 1,16,-1
 1.99609375 4.9970703125 l 1,17,-1
 2.994140625 4.9970703125 l 1,18,19
 2.994140625 5.00390625 2.994140625 5.00390625 2.994140625 6.001953125 c 1,20,-1
 3.9990234375 6.001953125 l 1,21,-1
 3.9990234375 4.9970703125 l 1,22,-1
 4.9970703125 4.9970703125 l 1,23,-1
 4.9970703125 3.9990234375 l 1,24,-1
 3.9990234375 3.9990234375 l 1,25,26
 3.9990234375 3.9921875 3.9990234375 3.9921875 3.9990234375 1.99609375 c 1,27,-1
 4.9970703125 1.99609375 l 1,28,-1
 4.9970703125 0.998046875 l 1,29,-1
 3.9990234375 0.998046875 l 1,30,-1
 3.9990234375 0 l 1,31,32
 3.9921875 0 3.9921875 0 2.994140625 0 c 1,33,-1
 2.994140625 0.998046875 l 1,34,-1
 1.99609375 0.998046875 l 1,35,-1
 1.99609375 0 l 1,36,-1
 0.998046875 0 l 1,5,-1
EndSplineSet
EndChar

StartChar: dollar
Encoding: 36 36 5
Width: 5
GlyphClass: 1
Flags: W
LayerCount: 2
Fore
SplineSet
2.994140625 0.998046875 m 1,0,-1
 2.994140625 1.99609375 l 1,1,-1
 3.9990234375 1.99609375 l 1,2,-1
 3.9990234375 0.998046875 l 1,3,-1
 2.994140625 0.998046875 l 1,0,-1
0 2.994140625 m 1,4,-1
 0 3.9990234375 l 1,5,-1
 0.998046875 3.9990234375 l 1,6,7
 0.998046875 3.9921875 0.998046875 3.9921875 0.998046875 2.994140625 c 1,8,-1
 0 2.994140625 l 1,4,-1
0.998046875 -0.998046875 m 1,9,-1
 0.998046875 0 l 1,10,-1
 0 0 l 1,11,-1
 0 0.998046875 l 1,12,-1
 0.998046875 0.998046875 l 1,13,-1
 0.998046875 2.994140625 l 1,14,-1
 1.99609375 2.994140625 l 1,15,-1
 1.99609375 3.9990234375 l 1,16,-1
 0.998046875 3.9990234375 l 1,17,-1
 0.998046875 4.9970703125 l 1,18,-1
 1.99609375 4.9970703125 l 1,19,20
 1.99609375 5.00390625 1.99609375 5.00390625 1.99609375 6.001953125 c 1,21,-1
 2.994140625 6.001953125 l 1,22,-1
 2.994140625 4.9970703125 l 1,23,-1
 3.9990234375 4.9970703125 l 1,24,-1
 3.9990234375 3.9990234375 l 1,25,26
 3.9921875 3.9990234375 3.9921875 3.9990234375 2.994140625 3.9990234375 c 1,27,28
 2.994140625 3.9921875 2.994140625 3.9921875 2.994140625 1.99609375 c 1,29,-1
 1.99609375 1.99609375 l 1,30,-1
 1.99609375 0.998046875 l 1,31,-1
 2.994140625 0.998046875 l 1,32,-1
 2.994140625 0 l 1,33,-1
 1.99609375 0 l 1,34,-1
 1.99609375 -0.998046875 l 1,35,-1
 0.998046875 -0.998046875 l 1,9,-1
EndSplineSet
EndChar

StartChar: percent
Encoding: 37 37 6
Width: 4
GlyphClass: 1
Flags: W
LayerCount: 2
Fore
SplineSet
1.99609375 0 m 1,0,-1
 1.99609375 0.998046875 l 1,1,-1
 2.994140625 0.998046875 l 1,2,-1
 2.994140625 0 l 1,3,-1
 1.99609375 0 l 1,0,-1
0 0 m 1,4,-1
 0 1.99609375 l 1,5,-1
 0.998046875 1.99609375 l 1,6,-1
 0.998046875 0 l 1,7,-1
 0 0 l 1,4,-1
0.998046875 1.99609375 m 1,8,-1
 0.998046875 3.9990234375 l 1,9,-1
 1.99609375 3.9990234375 l 1,10,11
 1.99609375 3.9921875 1.99609375 3.9921875 1.99609375 1.99609375 c 1,12,-1
 0.998046875 1.99609375 l 1,8,-1
0 4.9970703125 m 1,13,14
 0 5.00390625 0 5.00390625 0 6.001953125 c 1,15,-1
 0.998046875 6.001953125 l 1,16,-1
 0.998046875 4.9970703125 l 1,17,-1
 0 4.9970703125 l 1,13,14
1.99609375 3.9990234375 m 1,18,19
 1.99609375 4.005859375 1.99609375 4.005859375 1.99609375 6.001953125 c 1,20,-1
 2.994140625 6.001953125 l 1,21,-1
 2.994140625 3.9990234375 l 1,22,-1
 1.99609375 3.9990234375 l 1,18,19
EndSplineSet
EndChar

StartChar: ampersand
Encoding: 38 38 7
Width: 6
GlyphClass: 1
Flags: W
LayerCount: 2
Fore
SplineSet
0.998046875 0 m 1,0,-1
 0.998046875 0.998046875 l 1,1,-1
 2.994140625 0.998046875 l 1,2,-1
 2.994140625 0 l 1,3,-1
 0.998046875 0 l 1,0,-1
3.9990234375 0 m 1,4,-1
 3.9990234375 0.998046875 l 1,5,-1
 4.9970703125 0.998046875 l 1,6,-1
 4.9970703125 0 l 1,7,-1
 3.9990234375 0 l 1,4,-1
0 0.998046875 m 1,8,-1
 0 2.994140625 l 1,9,-1
 0.998046875 2.994140625 l 1,10,-1
 0.998046875 0.998046875 l 1,11,-1
 0 0.998046875 l 1,8,-1
2.994140625 0.998046875 m 1,12,-1
 2.994140625 2.994140625 l 1,13,-1
 3.9990234375 2.994140625 l 1,14,-1
 3.9990234375 0.998046875 l 1,15,-1
 2.994140625 0.998046875 l 1,12,-1
0.998046875 2.994140625 m 1,16,-1
 0.998046875 3.9990234375 l 1,17,-1
 2.994140625 3.9990234375 l 1,18,19
 2.994140625 3.9921875 2.994140625 3.9921875 2.994140625 2.994140625 c 1,20,-1
 0.998046875 2.994140625 l 1,16,-1
3.9990234375 2.994140625 m 1,21,-1
 3.9990234375 3.9990234375 l 1,22,-1
 4.9970703125 3.9990234375 l 1,23,24
 4.9970703125 3.9921875 4.9970703125 3.9921875 4.9970703125 2.994140625 c 1,25,-1
 3.9990234375 2.994140625 l 1,21,-1
0 3.9990234375 m 1,26,-1
 0 4.9970703125 l 1,27,-1
 0.998046875 4.9970703125 l 1,28,-1
 0.998046875 3.9990234375 l 1,29,-1
 0 3.9990234375 l 1,26,-1
0.998046875 4.9970703125 m 1,30,31
 0.998046875 5.00390625 0.998046875 5.00390625 0.998046875 6.001953125 c 1,32,-1
 2.994140625 6.001953125 l 1,33,-1
 2.994140625 4.9970703125 l 1,34,-1
 0.998046875 4.9970703125 l 1,30,31
EndSplineSet
EndChar

StartChar: quotesingle
Encoding: 39 39 8
Width: 2
GlyphClass: 1
Flags: W
LayerCount: 2
Fore
SplineSet
0 3.9990234375 m 1,0,1
 0 4.005859375 0 4.005859375 0 6.001953125 c 1,2,-1
 0.998046875 6.001953125 l 1,3,-1
 0.998046875 3.9990234375 l 1,4,-1
 0 3.9990234375 l 1,0,1
EndSplineSet
EndChar

StartChar: parenleft
Encoding: 40 40 9
Width: 3
GlyphClass: 1
Flags: W
LayerCount: 2
Fore
SplineSet
0.998046875 -0.998046875 m 1,0,-1
 0.998046875 0 l 1,1,-1
 1.99609375 0 l 1,2,-1
 1.99609375 -0.998046875 l 1,3,-1
 0.998046875 -0.998046875 l 1,0,-1
0 0 m 1,4,-1
 0 4.9970703125 l 1,5,-1
 0.998046875 4.9970703125 l 1,6,-1
 0.998046875 0 l 1,7,-1
 0 0 l 1,4,-1
0.998046875 4.9970703125 m 1,8,9
 0.998046875 5.00390625 0.998046875 5.00390625 0.998046875 6.001953125 c 1,10,-1
 1.99609375 6.001953125 l 1,11,-1
 1.99609375 4.9970703125 l 1,12,-1
 0.998046875 4.9970703125 l 1,8,9
EndSplineSet
EndChar

StartChar: parenright
Encoding: 41 41 10
Width: 3
GlyphClass: 1
Flags: W
LayerCount: 2
Fore
SplineSet
0 -0.998046875 m 1,0,-1
 0 0 l 1,1,-1
 0.998046875 0 l 1,2,-1
 0.998046875 -0.998046875 l 1,3,-1
 0 -0.998046875 l 1,0,-1
0.998046875 0 m 1,4,-1
 0.998046875 4.9970703125 l 1,5,-1
 1.99609375 4.9970703125 l 1,6,-1
 1.99609375 0 l 1,7,-1
 0.998046875 0 l 1,4,-1
0 4.9970703125 m 1,8,9
 0 5.00390625 0 5.00390625 0 6.001953125 c 1,10,-1
 0.998046875 6.001953125 l 1,11,-1
 0.998046875 4.9970703125 l 1,12,-1
 0 4.9970703125 l 1,8,9
EndSplineSet
EndChar

StartChar: asterisk
Encoding: 42 42 11
Width: 4
GlyphClass: 1
Flags: W
LayerCount: 2
Fore
SplineSet
0 2.994140625 m 1,0,-1
 0 3.9990234375 l 1,1,-1
 0.998046875 3.9990234375 l 1,2,3
 0.998046875 3.9921875 0.998046875 3.9921875 0.998046875 2.994140625 c 1,4,-1
 0 2.994140625 l 1,0,-1
1.99609375 2.994140625 m 1,5,-1
 1.99609375 3.9990234375 l 1,6,-1
 2.994140625 3.9990234375 l 1,7,8
 2.994140625 3.9921875 2.994140625 3.9921875 2.994140625 2.994140625 c 1,9,-1
 1.99609375 2.994140625 l 1,5,-1
0.998046875 3.9990234375 m 1,10,-1
 0.998046875 4.9970703125 l 1,11,-1
 1.99609375 4.9970703125 l 1,12,-1
 1.99609375 3.9990234375 l 1,13,-1
 0.998046875 3.9990234375 l 1,10,-1
0 4.9970703125 m 1,14,15
 0 5.00390625 0 5.00390625 0 6.001953125 c 1,16,-1
 0.998046875 6.001953125 l 1,17,-1
 0.998046875 4.9970703125 l 1,18,-1
 0 4.9970703125 l 1,14,15
1.99609375 4.9970703125 m 1,19,20
 1.99609375 5.00390625 1.99609375 5.00390625 1.99609375 6.001953125 c 1,21,-1
 2.994140625 6.001953125 l 1,22,-1
 2.994140625 4.9970703125 l 1,23,-1
 1.99609375 4.9970703125 l 1,19,20
EndSplineSet
EndChar

StartChar: plus
Encoding: 43 43 12
Width: 6
GlyphClass: 1
Flags: W
LayerCount: 2
Fore
SplineSet
1.99609375 0 m 1,0,-1
 1.99609375 1.99609375 l 1,1,-1
 0 1.99609375 l 1,2,-1
 0 2.994140625 l 1,3,-1
 1.99609375 2.994140625 l 1,4,-1
 1.99609375 4.9970703125 l 1,5,-1
 2.994140625 4.9970703125 l 1,6,7
 2.994140625 4.990234375 2.994140625 4.990234375 2.994140625 2.994140625 c 1,8,-1
 4.9970703125 2.994140625 l 1,9,-1
 4.9970703125 1.99609375 l 1,10,11
 4.990234375 1.99609375 4.990234375 1.99609375 2.994140625 1.99609375 c 1,12,-1
 2.994140625 0 l 1,13,-1
 1.99609375 0 l 1,0,-1
EndSplineSet
EndChar

StartChar: comma
Encoding: 44 44 13
Width: 2
GlyphClass: 1
Flags: W
LayerCount: 2
Fore
SplineSet
0 -0.998046875 m 1,0,-1
 0 0.998046875 l 1,1,-1
 0.998046875 0.998046875 l 1,2,-1
 0.998046875 -0.998046875 l 1,3,-1
 0 -0.998046875 l 1,0,-1
EndSplineSet
EndChar

StartChar: hyphen
Encoding: 45 45 14
Width: 5
GlyphClass: 1
Flags: W
LayerCount: 2
Fore
SplineSet
0 1.99609375 m 1,0,-1
 0 2.994140625 l 1,1,-1
 3.9990234375 2.994140625 l 1,2,-1
 3.9990234375 1.99609375 l 1,3,-1
 0 1.99609375 l 1,0,-1
EndSplineSet
EndChar

StartChar: period
Encoding: 46 46 15
Width: 2
GlyphClass: 1
Flags: W
LayerCount: 2
Fore
SplineSet
0 0 m 1,0,-1
 0 0.998046875 l 1,1,-1
 0.998046875 0.998046875 l 1,2,-1
 0.998046875 0 l 1,3,-1
 0 0 l 1,0,-1
EndSplineSet
EndChar

StartChar: slash
Encoding: 47 47 16
Width: 4
GlyphClass: 1
Flags: W
LayerCount: 2
Fore
SplineSet
0 0 m 1,0,-1
 0 1.99609375 l 1,1,-1
 0.998046875 1.99609375 l 1,2,-1
 0.998046875 0 l 1,3,-1
 0 0 l 1,0,-1
0.998046875 1.99609375 m 1,4,-1
 0.998046875 3.9990234375 l 1,5,-1
 1.99609375 3.9990234375 l 1,6,7
 1.99609375 3.9921875 1.99609375 3.9921875 1.99609375 1.99609375 c 1,8,-1
 0.998046875 1.99609375 l 1,4,-1
1.99609375 3.9990234375 m 1,9,10
 1.99609375 4.005859375 1.99609375 4.005859375 1.99609375 6.001953125 c 1,11,-1
 2.994140625 6.001953125 l 1,12,-1
 2.994140625 3.9990234375 l 1,13,-1
 1.99609375 3.9990234375 l 1,9,10
EndSplineSet
EndChar

StartChar: zero
Encoding: 48 48 17
Width: 5
GlyphClass: 1
InSpiro: 1
Flags: W
LayerCount: 2
Fore
SplineSet
0.998046875 0 m 1,0,-1
 0.998046875 0.998046875 l 1,1,-1
 2.994140625 0.998046875 l 1,2,-1
 2.994140625 0 l 1,3,-1
 0.998046875 0 l 1,0,-1
  Spiro
    0.998047 0 v
    0.998047 0.998047 v
    2.99414 0.998047 v
    2.99414 0 v
    0 0 z
  EndSpiro
0 0.998046875 m 1,4,-1
 0 4.9970703125 l 1,5,-1
 0.998046875 4.9970703125 l 1,6,7
 0.998046875 4.990234375 0.998046875 4.990234375 0.998046875 2.994140625 c 1,8,-1
 1.99609375 2.994140625 l 1,9,-1
 1.99609375 1.99609375 l 1,10,-1
 0.998046875 1.99609375 l 1,11,-1
 0.998046875 0.998046875 l 1,12,-1
 0 0.998046875 l 1,4,-1
  Spiro
    0 0.998047 v
    0 4.99707 v
    0.998047 4.99707 v
    0.998047 2.99414 v
    1.99609 2.99414 v
    1.99609 1.99609 v
    0.998047 1.99609 v
    0.998047 0.998047 v
    0 0 z
  EndSpiro
2.994140625 0.998046875 m 1,13,-1
 2.994140625 2.994140625 l 1,14,-1
 1.99609375 2.994140625 l 1,15,-1
 1.99609375 3.9990234375 l 1,16,-1
 2.994140625 3.9990234375 l 1,17,-1
 2.994140625 4.9970703125 l 1,18,-1
 3.9990234375 4.9970703125 l 1,19,-1
 3.9990234375 0.998046875 l 1,20,-1
 2.994140625 0.998046875 l 1,13,-1
  Spiro
    2.99414 0.998047 v
    2.99414 2.99414 v
    1.99609 2.99414 v
    1.99609 3.99902 v
    2.99414 3.99902 v
    2.99414 4.99707 v
    3.99902 4.99707 v
    3.99902 0.998047 v
    0 0 z
  EndSpiro
0.998046875 4.9970703125 m 1,21,22
 0.998046875 5.00390625 0.998046875 5.00390625 0.998046875 6.001953125 c 1,23,-1
 2.994140625 6.001953125 l 1,24,-1
 2.994140625 4.9970703125 l 1,25,-1
 0.998046875 4.9970703125 l 1,21,22
  Spiro
    0.998047 4.99707 v
    0.998047 6.00195 v
    2.99414 6.00195 v
    2.99414 4.99707 v
    0 0 z
  EndSpiro
EndSplineSet
EndChar

StartChar: one
Encoding: 49 49 18
Width: 4
GlyphClass: 1
Flags: W
LayerCount: 2
Fore
SplineSet
0 0 m 1,0,-1
 0 0.998046875 l 1,1,-1
 0.998046875 0.998046875 l 1,2,-1
 0.998046875 3.9990234375 l 1,3,-1
 0 3.9990234375 l 1,4,-1
 0 4.9970703125 l 1,5,-1
 0.998046875 4.9970703125 l 1,6,7
 0.998046875 5.00390625 0.998046875 5.00390625 0.998046875 6.001953125 c 1,8,-1
 1.99609375 6.001953125 l 1,9,-1
 1.99609375 0.998046875 l 1,10,-1
 2.994140625 0.998046875 l 1,11,-1
 2.994140625 0 l 1,12,-1
 0 0 l 1,0,-1
EndSplineSet
EndChar

StartChar: two
Encoding: 50 50 19
Width: 5
GlyphClass: 1
Flags: W
LayerCount: 2
Fore
SplineSet
0 0 m 1,0,-1
 0 0.998046875 l 1,1,-1
 0.998046875 0.998046875 l 1,2,-1
 0.998046875 1.99609375 l 1,3,-1
 1.99609375 1.99609375 l 1,4,-1
 1.99609375 0.998046875 l 1,5,-1
 3.9990234375 0.998046875 l 1,6,-1
 3.9990234375 0 l 1,7,-1
 0 0 l 1,0,-1
1.99609375 1.99609375 m 1,8,-1
 1.99609375 2.994140625 l 1,9,-1
 2.994140625 2.994140625 l 1,10,-1
 2.994140625 1.99609375 l 1,11,-1
 1.99609375 1.99609375 l 1,8,-1
0 3.9990234375 m 1,12,-1
 0 4.9970703125 l 1,13,-1
 0.998046875 4.9970703125 l 1,14,-1
 0.998046875 3.9990234375 l 1,15,-1
 0 3.9990234375 l 1,12,-1
2.994140625 2.994140625 m 1,16,-1
 2.994140625 4.9970703125 l 1,17,-1
 3.9990234375 4.9970703125 l 1,18,19
 3.9990234375 4.990234375 3.9990234375 4.990234375 3.9990234375 2.994140625 c 1,20,-1
 2.994140625 2.994140625 l 1,16,-1
0.998046875 4.9970703125 m 1,21,22
 0.998046875 5.00390625 0.998046875 5.00390625 0.998046875 6.001953125 c 1,23,-1
 2.994140625 6.001953125 l 1,24,-1
 2.994140625 4.9970703125 l 1,25,-1
 0.998046875 4.9970703125 l 1,21,22
EndSplineSet
EndChar

StartChar: three
Encoding: 51 51 20
Width: 5
GlyphClass: 1
Flags: W
LayerCount: 2
Fore
SplineSet
0 0 m 1,0,-1
 0 0.998046875 l 1,1,-1
 2.994140625 0.998046875 l 1,2,-1
 2.994140625 0 l 1,3,-1
 0 0 l 1,0,-1
2.994140625 0.998046875 m 1,4,-1
 2.994140625 2.994140625 l 1,5,-1
 3.9990234375 2.994140625 l 1,6,-1
 3.9990234375 0.998046875 l 1,7,-1
 2.994140625 0.998046875 l 1,4,-1
0.998046875 2.994140625 m 1,8,-1
 0.998046875 3.9990234375 l 1,9,-1
 2.994140625 3.9990234375 l 1,10,11
 2.994140625 3.9921875 2.994140625 3.9921875 2.994140625 2.994140625 c 1,12,-1
 0.998046875 2.994140625 l 1,8,-1
2.994140625 3.9990234375 m 1,13,-1
 2.994140625 4.9970703125 l 1,14,-1
 3.9990234375 4.9970703125 l 1,15,-1
 3.9990234375 3.9990234375 l 1,16,-1
 2.994140625 3.9990234375 l 1,13,-1
0 4.9970703125 m 1,17,18
 0 5.00390625 0 5.00390625 0 6.001953125 c 1,19,-1
 2.994140625 6.001953125 l 1,20,-1
 2.994140625 4.9970703125 l 1,21,-1
 0 4.9970703125 l 1,17,18
EndSplineSet
EndChar

StartChar: four
Encoding: 52 52 21
Width: 5
GlyphClass: 1
Flags: W
LayerCount: 2
Fore
SplineSet
1.99609375 0 m 1,0,-1
 1.99609375 1.99609375 l 1,1,-1
 0 1.99609375 l 1,2,-1
 0 6.001953125 l 1,3,-1
 0.998046875 6.001953125 l 1,4,-1
 0.998046875 2.994140625 l 1,5,-1
 1.99609375 2.994140625 l 1,6,-1
 1.99609375 6.001953125 l 1,7,-1
 2.994140625 6.001953125 l 1,8,-1
 2.994140625 2.994140625 l 1,9,-1
 3.9990234375 2.994140625 l 1,10,-1
 3.9990234375 1.99609375 l 1,11,12
 3.9921875 1.99609375 3.9921875 1.99609375 2.994140625 1.99609375 c 1,13,-1
 2.994140625 0 l 1,14,-1
 1.99609375 0 l 1,0,-1
EndSplineSet
EndChar

StartChar: five
Encoding: 53 53 22
Width: 5
GlyphClass: 1
Flags: W
LayerCount: 2
Fore
SplineSet
0 0 m 1,0,-1
 0 0.998046875 l 1,1,-1
 2.994140625 0.998046875 l 1,2,-1
 2.994140625 0 l 1,3,-1
 0 0 l 1,0,-1
2.994140625 0.998046875 m 1,4,-1
 2.994140625 2.994140625 l 1,5,-1
 3.9990234375 2.994140625 l 1,6,-1
 3.9990234375 0.998046875 l 1,7,-1
 2.994140625 0.998046875 l 1,4,-1
0 2.994140625 m 1,8,-1
 0 6.001953125 l 1,9,-1
 3.9990234375 6.001953125 l 1,10,-1
 3.9990234375 4.9970703125 l 1,11,-1
 0.998046875 4.9970703125 l 1,12,-1
 0.998046875 3.9990234375 l 1,13,-1
 2.994140625 3.9990234375 l 1,14,15
 2.994140625 3.9921875 2.994140625 3.9921875 2.994140625 2.994140625 c 1,16,-1
 0 2.994140625 l 1,8,-1
EndSplineSet
EndChar

StartChar: six
Encoding: 54 54 23
Width: 5
GlyphClass: 1
Flags: W
LayerCount: 2
Fore
SplineSet
0.998046875 0 m 1,0,-1
 0.998046875 0.998046875 l 1,1,-1
 2.994140625 0.998046875 l 1,2,-1
 2.994140625 0 l 1,3,-1
 0.998046875 0 l 1,0,-1
2.994140625 0.998046875 m 1,4,-1
 2.994140625 2.994140625 l 1,5,-1
 3.9990234375 2.994140625 l 1,6,-1
 3.9990234375 0.998046875 l 1,7,-1
 2.994140625 0.998046875 l 1,4,-1
0 0.998046875 m 1,8,-1
 0 4.9970703125 l 1,9,-1
 0.998046875 4.9970703125 l 1,10,-1
 0.998046875 3.9990234375 l 1,11,-1
 2.994140625 3.9990234375 l 1,12,13
 2.994140625 3.9921875 2.994140625 3.9921875 2.994140625 2.994140625 c 1,14,-1
 0.998046875 2.994140625 l 1,15,-1
 0.998046875 0.998046875 l 1,16,-1
 0 0.998046875 l 1,8,-1
0.998046875 4.9970703125 m 1,17,18
 0.998046875 5.00390625 0.998046875 5.00390625 0.998046875 6.001953125 c 1,19,-1
 3.9990234375 6.001953125 l 1,20,-1
 3.9990234375 4.9970703125 l 1,21,-1
 0.998046875 4.9970703125 l 1,17,18
EndSplineSet
EndChar

StartChar: seven
Encoding: 55 55 24
Width: 5
GlyphClass: 1
Flags: W
LayerCount: 2
Fore
SplineSet
0.998046875 0 m 1,0,-1
 0.998046875 1.99609375 l 1,1,-1
 1.99609375 1.99609375 l 1,2,-1
 1.99609375 0 l 1,3,-1
 0.998046875 0 l 1,0,-1
1.99609375 1.99609375 m 1,4,-1
 1.99609375 3.9990234375 l 1,5,-1
 2.994140625 3.9990234375 l 1,6,7
 2.994140625 3.9921875 2.994140625 3.9921875 2.994140625 1.99609375 c 1,8,-1
 1.99609375 1.99609375 l 1,4,-1
2.994140625 3.9990234375 m 1,9,-1
 2.994140625 4.9970703125 l 1,10,-1
 0 4.9970703125 l 1,11,12
 0 5.00390625 0 5.00390625 0 6.001953125 c 1,13,-1
 3.9990234375 6.001953125 l 1,14,-1
 3.9990234375 3.9990234375 l 1,15,-1
 2.994140625 3.9990234375 l 1,9,-1
EndSplineSet
EndChar

StartChar: eight
Encoding: 56 56 25
Width: 5
GlyphClass: 1
Flags: W
LayerCount: 2
Fore
SplineSet
0.998046875 0 m 1,0,-1
 0.998046875 0.998046875 l 1,1,-1
 2.994140625 0.998046875 l 1,2,-1
 2.994140625 0 l 1,3,-1
 0.998046875 0 l 1,0,-1
0 0.998046875 m 1,4,-1
 0 2.994140625 l 1,5,-1
 0.998046875 2.994140625 l 1,6,-1
 0.998046875 0.998046875 l 1,7,-1
 0 0.998046875 l 1,4,-1
2.994140625 0.998046875 m 1,8,-1
 2.994140625 2.994140625 l 1,9,-1
 3.9990234375 2.994140625 l 1,10,-1
 3.9990234375 0.998046875 l 1,11,-1
 2.994140625 0.998046875 l 1,8,-1
0.998046875 2.994140625 m 1,12,-1
 0.998046875 3.9990234375 l 1,13,-1
 2.994140625 3.9990234375 l 1,14,15
 2.994140625 3.9921875 2.994140625 3.9921875 2.994140625 2.994140625 c 1,16,-1
 0.998046875 2.994140625 l 1,12,-1
0 3.9990234375 m 1,17,-1
 0 4.9970703125 l 1,18,-1
 0.998046875 4.9970703125 l 1,19,-1
 0.998046875 3.9990234375 l 1,20,-1
 0 3.9990234375 l 1,17,-1
2.994140625 3.9990234375 m 1,21,-1
 2.994140625 4.9970703125 l 1,22,-1
 3.9990234375 4.9970703125 l 1,23,-1
 3.9990234375 3.9990234375 l 1,24,-1
 2.994140625 3.9990234375 l 1,21,-1
0.998046875 4.9970703125 m 1,25,26
 0.998046875 5.00390625 0.998046875 5.00390625 0.998046875 6.001953125 c 1,27,-1
 2.994140625 6.001953125 l 1,28,-1
 2.994140625 4.9970703125 l 1,29,-1
 0.998046875 4.9970703125 l 1,25,26
EndSplineSet
EndChar

StartChar: nine
Encoding: 57 57 26
Width: 5
GlyphClass: 1
Flags: W
LayerCount: 2
Fore
SplineSet
0 0 m 1,0,-1
 0 0.998046875 l 1,1,-1
 2.994140625 0.998046875 l 1,2,-1
 2.994140625 0 l 1,3,-1
 0 0 l 1,0,-1
0 2.994140625 m 1,4,-1
 0 4.9970703125 l 1,5,-1
 0.998046875 4.9970703125 l 1,6,7
 0.998046875 4.990234375 0.998046875 4.990234375 0.998046875 2.994140625 c 1,8,-1
 0 2.994140625 l 1,4,-1
2.994140625 0.998046875 m 1,9,-1
 2.994140625 1.99609375 l 1,10,-1
 0.998046875 1.99609375 l 1,11,-1
 0.998046875 2.994140625 l 1,12,-1
 2.994140625 2.994140625 l 1,13,-1
 2.994140625 4.9970703125 l 1,14,-1
 3.9990234375 4.9970703125 l 1,15,-1
 3.9990234375 0.998046875 l 1,16,-1
 2.994140625 0.998046875 l 1,9,-1
0.998046875 4.9970703125 m 1,17,18
 0.998046875 5.00390625 0.998046875 5.00390625 0.998046875 6.001953125 c 1,19,-1
 2.994140625 6.001953125 l 1,20,-1
 2.994140625 4.9970703125 l 1,21,-1
 0.998046875 4.9970703125 l 1,17,18
EndSplineSet
EndChar

StartChar: colon
Encoding: 58 58 27
Width: 2
GlyphClass: 1
Flags: W
LayerCount: 2
Fore
SplineSet
0 0 m 1,0,-1
 0 0.998046875 l 1,1,-1
 0.998046875 0.998046875 l 1,2,-1
 0.998046875 0 l 1,3,-1
 0 0 l 1,0,-1
0 2.994140625 m 1,4,-1
 0 3.9990234375 l 1,5,-1
 0.998046875 3.9990234375 l 1,6,7
 0.998046875 3.9921875 0.998046875 3.9921875 0.998046875 2.994140625 c 1,8,-1
 0 2.994140625 l 1,4,-1
EndSplineSet
EndChar

StartChar: semicolon
Encoding: 59 59 28
Width: 2
GlyphClass: 1
Flags: W
LayerCount: 2
Fore
SplineSet
0 0 m 1,0,-1
 0 1.99609375 l 1,1,-1
 0.998046875 1.99609375 l 1,2,-1
 0.998046875 0 l 1,3,-1
 0 0 l 1,0,-1
0 3.9990234375 m 1,4,-1
 0 4.9970703125 l 1,5,-1
 0.998046875 4.9970703125 l 1,6,-1
 0.998046875 3.9990234375 l 1,7,-1
 0 3.9990234375 l 1,4,-1
EndSplineSet
EndChar

StartChar: less
Encoding: 60 60 29
Width: 4
GlyphClass: 1
Flags: W
LayerCount: 2
Fore
SplineSet
1.99609375 0 m 1,0,-1
 1.99609375 0.998046875 l 1,1,-1
 2.994140625 0.998046875 l 1,2,-1
 2.994140625 0 l 1,3,-1
 1.99609375 0 l 1,0,-1
0.998046875 0.998046875 m 1,4,-1
 0.998046875 1.99609375 l 1,5,-1
 1.99609375 1.99609375 l 1,6,-1
 1.99609375 0.998046875 l 1,7,-1
 0.998046875 0.998046875 l 1,4,-1
0 1.99609375 m 1,8,-1
 0 2.994140625 l 1,9,-1
 0.998046875 2.994140625 l 1,10,-1
 0.998046875 1.99609375 l 1,11,-1
 0 1.99609375 l 1,8,-1
0.998046875 2.994140625 m 1,12,-1
 0.998046875 3.9990234375 l 1,13,-1
 1.99609375 3.9990234375 l 1,14,15
 1.99609375 3.9921875 1.99609375 3.9921875 1.99609375 2.994140625 c 1,16,-1
 0.998046875 2.994140625 l 1,12,-1
1.99609375 3.9990234375 m 1,17,-1
 1.99609375 4.9970703125 l 1,18,-1
 2.994140625 4.9970703125 l 1,19,-1
 2.994140625 3.9990234375 l 1,20,-1
 1.99609375 3.9990234375 l 1,17,-1
EndSplineSet
EndChar

StartChar: equal
Encoding: 61 61 30
Width: 5
GlyphClass: 1
Flags: W
LayerCount: 2
Fore
SplineSet
0 0.998046875 m 1,0,-1
 0 1.99609375 l 1,1,-1
 3.9990234375 1.99609375 l 1,2,-1
 3.9990234375 0.998046875 l 1,3,-1
 0 0.998046875 l 1,0,-1
0 2.994140625 m 1,4,-1
 0 3.9990234375 l 1,5,-1
 3.9990234375 3.9990234375 l 1,6,7
 3.9990234375 3.9921875 3.9990234375 3.9921875 3.9990234375 2.994140625 c 1,8,-1
 0 2.994140625 l 1,4,-1
EndSplineSet
EndChar

StartChar: greater
Encoding: 62 62 31
Width: 4
GlyphClass: 1
Flags: W
LayerCount: 2
Fore
SplineSet
0 0 m 1,0,-1
 0 0.998046875 l 1,1,-1
 0.998046875 0.998046875 l 1,2,-1
 0.998046875 0 l 1,3,-1
 0 0 l 1,0,-1
0.998046875 0.998046875 m 1,4,-1
 0.998046875 1.99609375 l 1,5,-1
 1.99609375 1.99609375 l 1,6,-1
 1.99609375 0.998046875 l 1,7,-1
 0.998046875 0.998046875 l 1,4,-1
1.99609375 1.99609375 m 1,8,-1
 1.99609375 2.994140625 l 1,9,-1
 2.994140625 2.994140625 l 1,10,-1
 2.994140625 1.99609375 l 1,11,-1
 1.99609375 1.99609375 l 1,8,-1
0.998046875 2.994140625 m 1,12,-1
 0.998046875 3.9990234375 l 1,13,-1
 1.99609375 3.9990234375 l 1,14,15
 1.99609375 3.9921875 1.99609375 3.9921875 1.99609375 2.994140625 c 1,16,-1
 0.998046875 2.994140625 l 1,12,-1
0 3.9990234375 m 1,17,-1
 0 4.9970703125 l 1,18,-1
 0.998046875 4.9970703125 l 1,19,-1
 0.998046875 3.9990234375 l 1,20,-1
 0 3.9990234375 l 1,17,-1
EndSplineSet
EndChar

StartChar: question
Encoding: 63 63 32
Width: 5
GlyphClass: 1
Flags: W
LayerCount: 2
Fore
SplineSet
0.998046875 -0.998046875 m 1,0,-1
 0.998046875 0 l 1,1,-1
 1.99609375 0 l 1,2,-1
 1.99609375 -0.998046875 l 1,3,-1
 0.998046875 -0.998046875 l 1,0,-1
0.998046875 0.998046875 m 1,4,-1
 0.998046875 2.994140625 l 1,5,-1
 2.994140625 2.994140625 l 1,6,-1
 2.994140625 1.99609375 l 1,7,-1
 1.99609375 1.99609375 l 1,8,-1
 1.99609375 0.998046875 l 1,9,-1
 0.998046875 0.998046875 l 1,4,-1
2.994140625 2.994140625 m 1,10,-1
 2.994140625 4.9970703125 l 1,11,-1
 3.9990234375 4.9970703125 l 1,12,13
 3.9990234375 4.990234375 3.9990234375 4.990234375 3.9990234375 2.994140625 c 1,14,-1
 2.994140625 2.994140625 l 1,10,-1
0 4.9970703125 m 1,15,16
 0 5.00390625 0 5.00390625 0 6.001953125 c 1,17,-1
 2.994140625 6.001953125 l 1,18,-1
 2.994140625 4.9970703125 l 1,19,-1
 0 4.9970703125 l 1,15,16
EndSplineSet
EndChar

StartChar: at
Encoding: 64 64 33
Width: 6
GlyphClass: 1
Flags: W
LayerCount: 2
Fore
SplineSet
0.998046875 -0.998046875 m 1,0,-1
 0.998046875 0 l 1,1,-1
 3.9990234375 0 l 1,2,-1
 3.9990234375 -0.998046875 l 1,3,-1
 0.998046875 -0.998046875 l 1,0,-1
0 0 m 1,4,-1
 0 4.9970703125 l 1,5,-1
 0.998046875 4.9970703125 l 1,6,-1
 0.998046875 0 l 1,7,-1
 0 0 l 1,4,-1
1.99609375 0.998046875 m 1,8,-1
 1.99609375 2.994140625 l 1,9,-1
 3.9990234375 2.994140625 l 1,10,-1
 3.9990234375 4.9970703125 l 1,11,-1
 4.9970703125 4.9970703125 l 1,12,-1
 4.9970703125 0.998046875 l 1,13,-1
 1.99609375 0.998046875 l 1,8,-1
0.998046875 4.9970703125 m 1,14,15
 0.998046875 5.00390625 0.998046875 5.00390625 0.998046875 6.001953125 c 1,16,-1
 3.9990234375 6.001953125 l 1,17,-1
 3.9990234375 4.9970703125 l 1,18,-1
 0.998046875 4.9970703125 l 1,14,15
EndSplineSet
EndChar

StartChar: A
Encoding: 65 65 34
Width: 5
GlyphClass: 1
Flags: W
LayerCount: 2
Fore
SplineSet
0 0 m 1,0,-1
 0 4.9970703125 l 1,1,-1
 0.998046875 4.9970703125 l 1,2,3
 0.998046875 4.990234375 0.998046875 4.990234375 0.998046875 2.994140625 c 1,4,-1
 2.994140625 2.994140625 l 1,5,-1
 2.994140625 4.9970703125 l 1,6,-1
 3.9990234375 4.9970703125 l 1,7,-1
 3.9990234375 0 l 1,8,9
 3.9921875 0 3.9921875 0 2.994140625 0 c 1,10,-1
 2.994140625 1.99609375 l 1,11,-1
 0.998046875 1.99609375 l 1,12,-1
 0.998046875 0 l 1,13,-1
 0 0 l 1,0,-1
0.998046875 4.9970703125 m 1,14,15
 0.998046875 5.00390625 0.998046875 5.00390625 0.998046875 6.001953125 c 1,16,-1
 2.994140625 6.001953125 l 1,17,-1
 2.994140625 4.9970703125 l 1,18,-1
 0.998046875 4.9970703125 l 1,14,15
EndSplineSet
EndChar

StartChar: B
Encoding: 66 66 35
Width: 5
GlyphClass: 1
Flags: W
LayerCount: 2
Fore
SplineSet
2.994140625 0.998046875 m 1,0,-1
 2.994140625 2.994140625 l 1,1,-1
 3.9990234375 2.994140625 l 1,2,-1
 3.9990234375 0.998046875 l 1,3,-1
 2.994140625 0.998046875 l 1,0,-1
2.994140625 3.9990234375 m 1,4,-1
 2.994140625 4.9970703125 l 1,5,-1
 3.9990234375 4.9970703125 l 1,6,-1
 3.9990234375 3.9990234375 l 1,7,-1
 2.994140625 3.9990234375 l 1,4,-1
0 0 m 1,8,-1
 0 6.001953125 l 1,9,-1
 2.994140625 6.001953125 l 1,10,-1
 2.994140625 4.9970703125 l 1,11,-1
 0.998046875 4.9970703125 l 1,12,-1
 0.998046875 3.9990234375 l 1,13,-1
 2.994140625 3.9990234375 l 1,14,15
 2.994140625 3.9921875 2.994140625 3.9921875 2.994140625 2.994140625 c 1,16,-1
 0.998046875 2.994140625 l 1,17,-1
 0.998046875 0.998046875 l 1,18,-1
 2.994140625 0.998046875 l 1,19,-1
 2.994140625 0 l 1,20,-1
 0 0 l 1,8,-1
EndSplineSet
EndChar

StartChar: C
Encoding: 67 67 36
Width: 5
GlyphClass: 1
Flags: W
LayerCount: 2
Fore
SplineSet
0.998046875 0 m 1,0,-1
 0.998046875 0.998046875 l 1,1,-1
 2.994140625 0.998046875 l 1,2,-1
 2.994140625 0 l 1,3,-1
 0.998046875 0 l 1,0,-1
2.994140625 0.998046875 m 1,4,-1
 2.994140625 1.99609375 l 1,5,-1
 3.9990234375 1.99609375 l 1,6,-1
 3.9990234375 0.998046875 l 1,7,-1
 2.994140625 0.998046875 l 1,4,-1
0 0.998046875 m 1,8,-1
 0 4.9970703125 l 1,9,-1
 0.998046875 4.9970703125 l 1,10,-1
 0.998046875 0.998046875 l 1,11,-1
 0 0.998046875 l 1,8,-1
2.994140625 3.9990234375 m 1,12,-1
 2.994140625 4.9970703125 l 1,13,-1
 3.9990234375 4.9970703125 l 1,14,-1
 3.9990234375 3.9990234375 l 1,15,-1
 2.994140625 3.9990234375 l 1,12,-1
0.998046875 4.9970703125 m 1,16,17
 0.998046875 5.00390625 0.998046875 5.00390625 0.998046875 6.001953125 c 1,18,-1
 2.994140625 6.001953125 l 1,19,-1
 2.994140625 4.9970703125 l 1,20,-1
 0.998046875 4.9970703125 l 1,16,17
EndSplineSet
EndChar

StartChar: D
Encoding: 68 68 37
Width: 5
GlyphClass: 1
Flags: W
LayerCount: 2
Fore
SplineSet
2.994140625 0.998046875 m 1,0,-1
 2.994140625 4.9970703125 l 1,1,-1
 3.9990234375 4.9970703125 l 1,2,-1
 3.9990234375 0.998046875 l 1,3,-1
 2.994140625 0.998046875 l 1,0,-1
0 0 m 1,4,-1
 0 6.001953125 l 1,5,-1
 2.994140625 6.001953125 l 1,6,-1
 2.994140625 4.9970703125 l 1,7,-1
 0.998046875 4.9970703125 l 1,8,-1
 0.998046875 0.998046875 l 1,9,-1
 2.994140625 0.998046875 l 1,10,-1
 2.994140625 0 l 1,11,-1
 0 0 l 1,4,-1
EndSplineSet
EndChar

StartChar: E
Encoding: 69 69 38
Width: 5
GlyphClass: 1
Flags: W
LayerCount: 2
Fore
SplineSet
0 0 m 1,0,-1
 0 6.001953125 l 1,1,-1
 3.9990234375 6.001953125 l 1,2,-1
 3.9990234375 4.9970703125 l 1,3,-1
 0.998046875 4.9970703125 l 1,4,-1
 0.998046875 3.9990234375 l 1,5,-1
 2.994140625 3.9990234375 l 1,6,7
 2.994140625 3.9921875 2.994140625 3.9921875 2.994140625 2.994140625 c 1,8,-1
 0.998046875 2.994140625 l 1,9,-1
 0.998046875 0.998046875 l 1,10,-1
 3.9990234375 0.998046875 l 1,11,-1
 3.9990234375 0 l 1,12,-1
 0 0 l 1,0,-1
EndSplineSet
EndChar

StartChar: F
Encoding: 70 70 39
Width: 5
GlyphClass: 1
Flags: W
LayerCount: 2
Fore
SplineSet
0 0 m 1,0,-1
 0 6.001953125 l 1,1,-1
 3.9990234375 6.001953125 l 1,2,-1
 3.9990234375 4.9970703125 l 1,3,-1
 0.998046875 4.9970703125 l 1,4,-1
 0.998046875 3.9990234375 l 1,5,-1
 2.994140625 3.9990234375 l 1,6,7
 2.994140625 3.9921875 2.994140625 3.9921875 2.994140625 2.994140625 c 1,8,-1
 0.998046875 2.994140625 l 1,9,-1
 0.998046875 0 l 1,10,-1
 0 0 l 1,0,-1
EndSplineSet
EndChar

StartChar: G
Encoding: 71 71 40
Width: 5
GlyphClass: 1
Flags: W
LayerCount: 2
Fore
SplineSet
0.998046875 0 m 1,0,-1
 0.998046875 0.998046875 l 1,1,-1
 2.994140625 0.998046875 l 1,2,-1
 2.994140625 0 l 1,3,-1
 0.998046875 0 l 1,0,-1
2.994140625 0.998046875 m 1,4,-1
 2.994140625 1.99609375 l 1,5,-1
 1.99609375 1.99609375 l 1,6,-1
 1.99609375 2.994140625 l 1,7,-1
 3.9990234375 2.994140625 l 1,8,-1
 3.9990234375 0.998046875 l 1,9,-1
 2.994140625 0.998046875 l 1,4,-1
0 0.998046875 m 1,10,-1
 0 4.9970703125 l 1,11,-1
 0.998046875 4.9970703125 l 1,12,-1
 0.998046875 0.998046875 l 1,13,-1
 0 0.998046875 l 1,10,-1
2.994140625 3.9990234375 m 1,14,-1
 2.994140625 4.9970703125 l 1,15,-1
 3.9990234375 4.9970703125 l 1,16,-1
 3.9990234375 3.9990234375 l 1,17,-1
 2.994140625 3.9990234375 l 1,14,-1
0.998046875 4.9970703125 m 1,18,19
 0.998046875 5.00390625 0.998046875 5.00390625 0.998046875 6.001953125 c 1,20,-1
 2.994140625 6.001953125 l 1,21,-1
 2.994140625 4.9970703125 l 1,22,-1
 0.998046875 4.9970703125 l 1,18,19
EndSplineSet
EndChar

StartChar: H
Encoding: 72 72 41
Width: 5
GlyphClass: 1
Flags: W
LayerCount: 2
Fore
SplineSet
0 0 m 1,0,-1
 0 6.001953125 l 1,1,-1
 0.998046875 6.001953125 l 1,2,-1
 0.998046875 3.9990234375 l 1,3,-1
 2.994140625 3.9990234375 l 1,4,5
 2.994140625 4.005859375 2.994140625 4.005859375 2.994140625 6.001953125 c 1,6,-1
 3.9990234375 6.001953125 l 1,7,-1
 3.9990234375 0 l 1,8,9
 3.9921875 0 3.9921875 0 2.994140625 0 c 1,10,-1
 2.994140625 2.994140625 l 1,11,-1
 0.998046875 2.994140625 l 1,12,-1
 0.998046875 0 l 1,13,-1
 0 0 l 1,0,-1
EndSplineSet
EndChar

StartChar: I
Encoding: 73 73 42
Width: 4
GlyphClass: 1
Flags: W
LayerCount: 2
Fore
SplineSet
0 0 m 1,0,-1
 0 0.998046875 l 1,1,-1
 0.998046875 0.998046875 l 1,2,-1
 0.998046875 4.9970703125 l 1,3,-1
 0 4.9970703125 l 1,4,5
 0 5.00390625 0 5.00390625 0 6.001953125 c 1,6,-1
 2.994140625 6.001953125 l 1,7,-1
 2.994140625 4.9970703125 l 1,8,-1
 1.99609375 4.9970703125 l 1,9,-1
 1.99609375 0.998046875 l 1,10,-1
 2.994140625 0.998046875 l 1,11,-1
 2.994140625 0 l 1,12,-1
 0 0 l 1,0,-1
EndSplineSet
EndChar

StartChar: J
Encoding: 74 74 43
Width: 5
GlyphClass: 1
Flags: W
LayerCount: 2
Fore
SplineSet
0.998046875 0 m 1,0,-1
 0.998046875 0.998046875 l 1,1,-1
 2.994140625 0.998046875 l 1,2,-1
 2.994140625 0 l 1,3,-1
 0.998046875 0 l 1,0,-1
0 0.998046875 m 1,4,-1
 0 1.99609375 l 1,5,-1
 0.998046875 1.99609375 l 1,6,-1
 0.998046875 0.998046875 l 1,7,-1
 0 0.998046875 l 1,4,-1
2.994140625 0.998046875 m 1,8,-1
 2.994140625 4.9970703125 l 1,9,-1
 0.998046875 4.9970703125 l 1,10,11
 0.998046875 5.00390625 0.998046875 5.00390625 0.998046875 6.001953125 c 1,12,-1
 3.9990234375 6.001953125 l 1,13,-1
 3.9990234375 0.998046875 l 1,14,-1
 2.994140625 0.998046875 l 1,8,-1
EndSplineSet
EndChar

StartChar: K
Encoding: 75 75 44
Width: 5
GlyphClass: 1
Flags: W
LayerCount: 2
Fore
SplineSet
2.994140625 0 m 1,0,-1
 2.994140625 0.998046875 l 1,1,-1
 3.9990234375 0.998046875 l 1,2,-1
 3.9990234375 0 l 1,3,-1
 2.994140625 0 l 1,0,-1
1.99609375 0.998046875 m 1,4,-1
 1.99609375 2.994140625 l 1,5,-1
 2.994140625 2.994140625 l 1,6,-1
 2.994140625 0.998046875 l 1,7,-1
 1.99609375 0.998046875 l 1,4,-1
1.99609375 3.9990234375 m 1,8,-1
 1.99609375 4.9970703125 l 1,9,-1
 2.994140625 4.9970703125 l 1,10,-1
 2.994140625 3.9990234375 l 1,11,-1
 1.99609375 3.9990234375 l 1,8,-1
0 0 m 1,12,-1
 0 6.001953125 l 1,13,-1
 0.998046875 6.001953125 l 1,14,-1
 0.998046875 3.9990234375 l 1,15,-1
 1.99609375 3.9990234375 l 1,16,17
 1.99609375 3.9921875 1.99609375 3.9921875 1.99609375 2.994140625 c 1,18,-1
 0.998046875 2.994140625 l 1,19,-1
 0.998046875 0 l 1,20,-1
 0 0 l 1,12,-1
2.994140625 4.9970703125 m 1,21,22
 2.994140625 5.00390625 2.994140625 5.00390625 2.994140625 6.001953125 c 1,23,-1
 3.9990234375 6.001953125 l 1,24,-1
 3.9990234375 4.9970703125 l 1,25,-1
 2.994140625 4.9970703125 l 1,21,22
EndSplineSet
EndChar

StartChar: L
Encoding: 76 76 45
Width: 5
GlyphClass: 1
Flags: W
LayerCount: 2
Fore
SplineSet
0 0 m 1,0,-1
 0 6.001953125 l 1,1,-1
 0.998046875 6.001953125 l 1,2,-1
 0.998046875 0.998046875 l 1,3,-1
 3.9990234375 0.998046875 l 1,4,-1
 3.9990234375 0 l 1,5,-1
 0 0 l 1,0,-1
EndSplineSet
EndChar

StartChar: M
Encoding: 77 77 46
Width: 6
GlyphClass: 1
Flags: W
LayerCount: 2
Fore
SplineSet
1.99609375 2.994140625 m 1,0,-1
 1.99609375 3.9990234375 l 1,1,-1
 2.994140625 3.9990234375 l 1,2,3
 2.994140625 3.9921875 2.994140625 3.9921875 2.994140625 2.994140625 c 1,4,-1
 1.99609375 2.994140625 l 1,0,-1
0 0 m 1,5,-1
 0 6.001953125 l 1,6,-1
 0.998046875 6.001953125 l 1,7,-1
 0.998046875 4.9970703125 l 1,8,-1
 1.99609375 4.9970703125 l 1,9,-1
 1.99609375 3.9990234375 l 1,10,-1
 0.998046875 3.9990234375 l 1,11,-1
 0.998046875 0 l 1,12,-1
 0 0 l 1,5,-1
3.9990234375 0 m 1,13,-1
 3.9990234375 3.9990234375 l 1,14,15
 3.9921875 3.9990234375 3.9921875 3.9990234375 2.994140625 3.9990234375 c 1,16,-1
 2.994140625 4.9970703125 l 1,17,-1
 3.9990234375 4.9970703125 l 1,18,19
 3.9990234375 5.00390625 3.9990234375 5.00390625 3.9990234375 6.001953125 c 1,20,-1
 4.9970703125 6.001953125 l 1,21,-1
 4.9970703125 0 l 1,22,-1
 3.9990234375 0 l 1,13,-1
EndSplineSet
EndChar

StartChar: N
Encoding: 78 78 47
Width: 6
GlyphClass: 1
Flags: W
LayerCount: 2
Fore
SplineSet
1.99609375 2.994140625 m 1,0,-1
 1.99609375 3.9990234375 l 1,1,-1
 2.994140625 3.9990234375 l 1,2,3
 2.994140625 3.9921875 2.994140625 3.9921875 2.994140625 2.994140625 c 1,4,-1
 1.99609375 2.994140625 l 1,0,-1
0 0 m 1,5,-1
 0 6.001953125 l 1,6,-1
 0.998046875 6.001953125 l 1,7,-1
 0.998046875 4.9970703125 l 1,8,-1
 1.99609375 4.9970703125 l 1,9,-1
 1.99609375 3.9990234375 l 1,10,-1
 0.998046875 3.9990234375 l 1,11,-1
 0.998046875 0 l 1,12,-1
 0 0 l 1,5,-1
3.9990234375 0 m 1,13,-1
 3.9990234375 1.99609375 l 1,14,15
 3.9921875 1.99609375 3.9921875 1.99609375 2.994140625 1.99609375 c 1,16,-1
 2.994140625 2.994140625 l 1,17,-1
 3.9990234375 2.994140625 l 1,18,-1
 3.9990234375 6.001953125 l 1,19,-1
 4.9970703125 6.001953125 l 1,20,-1
 4.9970703125 0 l 1,21,-1
 3.9990234375 0 l 1,13,-1
EndSplineSet
EndChar

StartChar: O
Encoding: 79 79 48
Width: 6
GlyphClass: 1
Flags: W
LayerCount: 2
Fore
SplineSet
0.998046875 0 m 1,0,-1
 0.998046875 0.998046875 l 1,1,-1
 3.9990234375 0.998046875 l 1,2,-1
 3.9990234375 0 l 1,3,-1
 0.998046875 0 l 1,0,-1
0 0.998046875 m 1,4,-1
 0 4.9970703125 l 1,5,-1
 0.998046875 4.9970703125 l 1,6,-1
 0.998046875 0.998046875 l 1,7,-1
 0 0.998046875 l 1,4,-1
3.9990234375 0.998046875 m 1,8,-1
 3.9990234375 4.9970703125 l 1,9,-1
 4.9970703125 4.9970703125 l 1,10,-1
 4.9970703125 0.998046875 l 1,11,-1
 3.9990234375 0.998046875 l 1,8,-1
0.998046875 4.9970703125 m 1,12,13
 0.998046875 5.00390625 0.998046875 5.00390625 0.998046875 6.001953125 c 1,14,-1
 3.9990234375 6.001953125 l 1,15,-1
 3.9990234375 4.9970703125 l 1,16,-1
 0.998046875 4.9970703125 l 1,12,13
EndSplineSet
EndChar

StartChar: P
Encoding: 80 80 49
Width: 5
GlyphClass: 1
Flags: W
LayerCount: 2
Fore
SplineSet
2.994140625 2.994140625 m 1,0,-1
 2.994140625 4.9970703125 l 1,1,-1
 3.9990234375 4.9970703125 l 1,2,3
 3.9990234375 4.990234375 3.9990234375 4.990234375 3.9990234375 2.994140625 c 1,4,-1
 2.994140625 2.994140625 l 1,0,-1
0 0 m 1,5,-1
 0 6.001953125 l 1,6,-1
 2.994140625 6.001953125 l 1,7,-1
 2.994140625 4.9970703125 l 1,8,-1
 0.998046875 4.9970703125 l 1,9,10
 0.998046875 4.990234375 0.998046875 4.990234375 0.998046875 2.994140625 c 1,11,-1
 2.994140625 2.994140625 l 1,12,-1
 2.994140625 1.99609375 l 1,13,-1
 0.998046875 1.99609375 l 1,14,-1
 0.998046875 0 l 1,15,-1
 0 0 l 1,5,-1
EndSplineSet
EndChar

StartChar: Q
Encoding: 81 81 50
Width: 6
GlyphClass: 1
Flags: W
LayerCount: 2
Fore
SplineSet
0.998046875 0 m 1,0,-1
 0.998046875 0.998046875 l 1,1,-1
 2.994140625 0.998046875 l 1,2,-1
 2.994140625 0 l 1,3,-1
 0.998046875 0 l 1,0,-1
3.9990234375 0 m 1,4,-1
 3.9990234375 0.998046875 l 1,5,-1
 4.9970703125 0.998046875 l 1,6,-1
 4.9970703125 0 l 1,7,-1
 3.9990234375 0 l 1,4,-1
0 0.998046875 m 1,8,-1
 0 4.9970703125 l 1,9,-1
 0.998046875 4.9970703125 l 1,10,-1
 0.998046875 0.998046875 l 1,11,-1
 0 0.998046875 l 1,8,-1
2.994140625 0.998046875 m 1,12,-1
 2.994140625 4.9970703125 l 1,13,-1
 3.9990234375 4.9970703125 l 1,14,-1
 3.9990234375 0.998046875 l 1,15,-1
 2.994140625 0.998046875 l 1,12,-1
0.998046875 4.9970703125 m 1,16,17
 0.998046875 5.00390625 0.998046875 5.00390625 0.998046875 6.001953125 c 1,18,-1
 2.994140625 6.001953125 l 1,19,-1
 2.994140625 4.9970703125 l 1,20,-1
 0.998046875 4.9970703125 l 1,16,17
EndSplineSet
EndChar

StartChar: R
Encoding: 82 82 51
Width: 5
GlyphClass: 1
Flags: W
LayerCount: 2
Fore
SplineSet
2.994140625 0 m 1,0,-1
 2.994140625 1.99609375 l 1,1,-1
 3.9990234375 1.99609375 l 1,2,-1
 3.9990234375 0 l 1,3,-1
 2.994140625 0 l 1,0,-1
2.994140625 2.994140625 m 1,4,-1
 2.994140625 4.9970703125 l 1,5,-1
 3.9990234375 4.9970703125 l 1,6,7
 3.9990234375 4.990234375 3.9990234375 4.990234375 3.9990234375 2.994140625 c 1,8,-1
 2.994140625 2.994140625 l 1,4,-1
0 0 m 1,9,-1
 0 6.001953125 l 1,10,-1
 2.994140625 6.001953125 l 1,11,-1
 2.994140625 4.9970703125 l 1,12,-1
 0.998046875 4.9970703125 l 1,13,14
 0.998046875 4.990234375 0.998046875 4.990234375 0.998046875 2.994140625 c 1,15,-1
 2.994140625 2.994140625 l 1,16,-1
 2.994140625 1.99609375 l 1,17,-1
 0.998046875 1.99609375 l 1,18,-1
 0.998046875 0 l 1,19,-1
 0 0 l 1,9,-1
EndSplineSet
EndChar

StartChar: S
Encoding: 83 83 52
Width: 5
GlyphClass: 1
Flags: W
LayerCount: 2
Fore
SplineSet
0 0 m 1,0,-1
 0 0.998046875 l 1,1,-1
 2.994140625 0.998046875 l 1,2,-1
 2.994140625 0 l 1,3,-1
 0 0 l 1,0,-1
2.994140625 0.998046875 m 1,4,-1
 2.994140625 2.994140625 l 1,5,-1
 3.9990234375 2.994140625 l 1,6,-1
 3.9990234375 0.998046875 l 1,7,-1
 2.994140625 0.998046875 l 1,4,-1
0.998046875 2.994140625 m 1,8,-1
 0.998046875 3.9990234375 l 1,9,-1
 2.994140625 3.9990234375 l 1,10,11
 2.994140625 3.9921875 2.994140625 3.9921875 2.994140625 2.994140625 c 1,12,-1
 0.998046875 2.994140625 l 1,8,-1
0 3.9990234375 m 1,13,-1
 0 4.9970703125 l 1,14,-1
 0.998046875 4.9970703125 l 1,15,-1
 0.998046875 3.9990234375 l 1,16,-1
 0 3.9990234375 l 1,13,-1
0.998046875 4.9970703125 m 1,17,18
 0.998046875 5.00390625 0.998046875 5.00390625 0.998046875 6.001953125 c 1,19,-1
 3.9990234375 6.001953125 l 1,20,-1
 3.9990234375 4.9970703125 l 1,21,-1
 0.998046875 4.9970703125 l 1,17,18
EndSplineSet
EndChar

StartChar: T
Encoding: 84 84 53
Width: 6
GlyphClass: 1
Flags: W
LayerCount: 2
Fore
SplineSet
1.99609375 0 m 1,0,-1
 1.99609375 4.9970703125 l 1,1,-1
 0 4.9970703125 l 1,2,3
 0 5.00390625 0 5.00390625 0 6.001953125 c 1,4,-1
 4.9970703125 6.001953125 l 1,5,-1
 4.9970703125 4.9970703125 l 1,6,7
 4.990234375 4.9970703125 4.990234375 4.9970703125 2.994140625 4.9970703125 c 1,8,-1
 2.994140625 0 l 1,9,-1
 1.99609375 0 l 1,0,-1
EndSplineSet
EndChar

StartChar: U
Encoding: 85 85 54
Width: 6
GlyphClass: 1
Flags: W
LayerCount: 2
Fore
SplineSet
0.998046875 0 m 1,0,-1
 0.998046875 0.998046875 l 1,1,-1
 3.9990234375 0.998046875 l 1,2,-1
 3.9990234375 0 l 1,3,-1
 0.998046875 0 l 1,0,-1
0 0.998046875 m 1,4,-1
 0 6.001953125 l 1,5,-1
 0.998046875 6.001953125 l 1,6,-1
 0.998046875 0.998046875 l 1,7,-1
 0 0.998046875 l 1,4,-1
3.9990234375 0.998046875 m 1,8,-1
 3.9990234375 6.001953125 l 1,9,-1
 4.9970703125 6.001953125 l 1,10,-1
 4.9970703125 0.998046875 l 1,11,-1
 3.9990234375 0.998046875 l 1,8,-1
EndSplineSet
EndChar

StartChar: V
Encoding: 86 86 55
Width: 6
GlyphClass: 1
Flags: W
LayerCount: 2
Fore
SplineSet
1.99609375 0 m 1,0,-1
 1.99609375 1.99609375 l 1,1,-1
 2.994140625 1.99609375 l 1,2,-1
 2.994140625 0 l 1,3,-1
 1.99609375 0 l 1,0,-1
0.998046875 1.99609375 m 1,4,-1
 0.998046875 3.9990234375 l 1,5,-1
 1.99609375 3.9990234375 l 1,6,7
 1.99609375 3.9921875 1.99609375 3.9921875 1.99609375 1.99609375 c 1,8,-1
 0.998046875 1.99609375 l 1,4,-1
2.994140625 1.99609375 m 1,9,-1
 2.994140625 3.9990234375 l 1,10,-1
 3.9990234375 3.9990234375 l 1,11,12
 3.9990234375 3.9921875 3.9990234375 3.9921875 3.9990234375 1.99609375 c 1,13,-1
 2.994140625 1.99609375 l 1,9,-1
0 3.9990234375 m 1,14,15
 0 4.005859375 0 4.005859375 0 6.001953125 c 1,16,-1
 0.998046875 6.001953125 l 1,17,-1
 0.998046875 3.9990234375 l 1,18,-1
 0 3.9990234375 l 1,14,15
3.9990234375 3.9990234375 m 1,19,20
 3.9990234375 4.005859375 3.9990234375 4.005859375 3.9990234375 6.001953125 c 1,21,-1
 4.9970703125 6.001953125 l 1,22,-1
 4.9970703125 3.9990234375 l 1,23,-1
 3.9990234375 3.9990234375 l 1,19,20
EndSplineSet
EndChar

StartChar: W
Encoding: 87 87 56
Width: 6
GlyphClass: 1
Flags: W
LayerCount: 2
Fore
SplineSet
0.998046875 0 m 1,0,-1
 0.998046875 0.998046875 l 1,1,-1
 1.99609375 0.998046875 l 1,2,-1
 1.99609375 0 l 1,3,-1
 0.998046875 0 l 1,0,-1
2.994140625 0 m 1,4,-1
 2.994140625 0.998046875 l 1,5,-1
 3.9990234375 0.998046875 l 1,6,-1
 3.9990234375 0 l 1,7,-1
 2.994140625 0 l 1,4,-1
1.99609375 0.998046875 m 1,8,-1
 1.99609375 4.9970703125 l 1,9,-1
 2.994140625 4.9970703125 l 1,10,-1
 2.994140625 0.998046875 l 1,11,-1
 1.99609375 0.998046875 l 1,8,-1
0 0.998046875 m 1,12,-1
 0 6.001953125 l 1,13,-1
 0.998046875 6.001953125 l 1,14,-1
 0.998046875 0.998046875 l 1,15,-1
 0 0.998046875 l 1,12,-1
3.9990234375 0.998046875 m 1,16,-1
 3.9990234375 6.001953125 l 1,17,-1
 4.9970703125 6.001953125 l 1,18,-1
 4.9970703125 0.998046875 l 1,19,-1
 3.9990234375 0.998046875 l 1,16,-1
EndSplineSet
EndChar

StartChar: X
Encoding: 88 88 57
Width: 6
GlyphClass: 1
Flags: W
LayerCount: 2
Fore
SplineSet
0 0 m 1,0,-1
 0 1.99609375 l 1,1,-1
 0.998046875 1.99609375 l 1,2,-1
 0.998046875 0 l 1,3,-1
 0 0 l 1,0,-1
3.9990234375 0 m 1,4,-1
 3.9990234375 1.99609375 l 1,5,-1
 4.9970703125 1.99609375 l 1,6,-1
 4.9970703125 0 l 1,7,-1
 3.9990234375 0 l 1,4,-1
0.998046875 1.99609375 m 1,8,-1
 0.998046875 2.994140625 l 1,9,-1
 1.99609375 2.994140625 l 1,10,-1
 1.99609375 1.99609375 l 1,11,-1
 0.998046875 1.99609375 l 1,8,-1
2.994140625 1.99609375 m 1,12,-1
 2.994140625 2.994140625 l 1,13,-1
 3.9990234375 2.994140625 l 1,14,-1
 3.9990234375 1.99609375 l 1,15,-1
 2.994140625 1.99609375 l 1,12,-1
1.99609375 2.994140625 m 1,16,-1
 1.99609375 3.9990234375 l 1,17,-1
 2.994140625 3.9990234375 l 1,18,19
 2.994140625 3.9921875 2.994140625 3.9921875 2.994140625 2.994140625 c 1,20,-1
 1.99609375 2.994140625 l 1,16,-1
0.998046875 3.9990234375 m 1,21,-1
 0.998046875 4.9970703125 l 1,22,-1
 1.99609375 4.9970703125 l 1,23,-1
 1.99609375 3.9990234375 l 1,24,-1
 0.998046875 3.9990234375 l 1,21,-1
2.994140625 3.9990234375 m 1,25,-1
 2.994140625 4.9970703125 l 1,26,-1
 3.9990234375 4.9970703125 l 1,27,-1
 3.9990234375 3.9990234375 l 1,28,-1
 2.994140625 3.9990234375 l 1,25,-1
0 4.9970703125 m 1,29,30
 0 5.00390625 0 5.00390625 0 6.001953125 c 1,31,-1
 0.998046875 6.001953125 l 1,32,-1
 0.998046875 4.9970703125 l 1,33,-1
 0 4.9970703125 l 1,29,30
3.9990234375 4.9970703125 m 1,34,35
 3.9990234375 5.00390625 3.9990234375 5.00390625 3.9990234375 6.001953125 c 1,36,-1
 4.9970703125 6.001953125 l 1,37,-1
 4.9970703125 4.9970703125 l 1,38,-1
 3.9990234375 4.9970703125 l 1,34,35
EndSplineSet
EndChar

StartChar: Y
Encoding: 89 89 58
Width: 6
GlyphClass: 1
Flags: W
LayerCount: 2
Fore
SplineSet
1.99609375 0 m 1,0,-1
 1.99609375 2.994140625 l 1,1,-1
 2.994140625 2.994140625 l 1,2,-1
 2.994140625 0 l 1,3,-1
 1.99609375 0 l 1,0,-1
0.998046875 2.994140625 m 1,4,-1
 0.998046875 3.9990234375 l 1,5,-1
 1.99609375 3.9990234375 l 1,6,7
 1.99609375 3.9921875 1.99609375 3.9921875 1.99609375 2.994140625 c 1,8,-1
 0.998046875 2.994140625 l 1,4,-1
2.994140625 2.994140625 m 1,9,-1
 2.994140625 3.9990234375 l 1,10,-1
 3.9990234375 3.9990234375 l 1,11,12
 3.9990234375 3.9921875 3.9990234375 3.9921875 3.9990234375 2.994140625 c 1,13,-1
 2.994140625 2.994140625 l 1,9,-1
0 3.9990234375 m 1,14,15
 0 4.005859375 0 4.005859375 0 6.001953125 c 1,16,-1
 0.998046875 6.001953125 l 1,17,-1
 0.998046875 3.9990234375 l 1,18,-1
 0 3.9990234375 l 1,14,15
3.9990234375 3.9990234375 m 1,19,20
 3.9990234375 4.005859375 3.9990234375 4.005859375 3.9990234375 6.001953125 c 1,21,-1
 4.9970703125 6.001953125 l 1,22,-1
 4.9970703125 3.9990234375 l 1,23,-1
 3.9990234375 3.9990234375 l 1,19,20
EndSplineSet
EndChar

StartChar: Z
Encoding: 90 90 59
Width: 5
GlyphClass: 1
Flags: W
LayerCount: 2
Fore
SplineSet
0 0 m 1,0,-1
 0 1.99609375 l 1,1,-1
 0.998046875 1.99609375 l 1,2,-1
 0.998046875 0.998046875 l 1,3,-1
 3.9990234375 0.998046875 l 1,4,-1
 3.9990234375 0 l 1,5,-1
 0 0 l 1,0,-1
0.998046875 1.99609375 m 1,6,-1
 0.998046875 2.994140625 l 1,7,-1
 1.99609375 2.994140625 l 1,8,-1
 1.99609375 1.99609375 l 1,9,-1
 0.998046875 1.99609375 l 1,6,-1
1.99609375 2.994140625 m 1,10,-1
 1.99609375 3.9990234375 l 1,11,-1
 2.994140625 3.9990234375 l 1,12,13
 2.994140625 3.9921875 2.994140625 3.9921875 2.994140625 2.994140625 c 1,14,-1
 1.99609375 2.994140625 l 1,10,-1
2.994140625 3.9990234375 m 1,15,-1
 2.994140625 4.9970703125 l 1,16,-1
 0 4.9970703125 l 1,17,18
 0 5.00390625 0 5.00390625 0 6.001953125 c 1,19,-1
 3.9990234375 6.001953125 l 1,20,-1
 3.9990234375 3.9990234375 l 1,21,-1
 2.994140625 3.9990234375 l 1,15,-1
EndSplineSet
EndChar

StartChar: bracketleft
Encoding: 91 91 60
Width: 3
GlyphClass: 1
Flags: W
LayerCount: 2
Fore
SplineSet
0 -0.998046875 m 1,0,-1
 0 6.001953125 l 1,1,-1
 1.99609375 6.001953125 l 1,2,-1
 1.99609375 4.9970703125 l 1,3,-1
 0.998046875 4.9970703125 l 1,4,-1
 0.998046875 0 l 1,5,-1
 1.99609375 0 l 1,6,-1
 1.99609375 -0.998046875 l 1,7,-1
 0 -0.998046875 l 1,0,-1
EndSplineSet
EndChar

StartChar: backslash
Encoding: 92 92 61
Width: 4
GlyphClass: 1
Flags: W
LayerCount: 2
Fore
SplineSet
1.99609375 0 m 1,0,-1
 1.99609375 1.99609375 l 1,1,-1
 2.994140625 1.99609375 l 1,2,-1
 2.994140625 0 l 1,3,-1
 1.99609375 0 l 1,0,-1
0.998046875 1.99609375 m 1,4,-1
 0.998046875 3.9990234375 l 1,5,-1
 1.99609375 3.9990234375 l 1,6,7
 1.99609375 3.9921875 1.99609375 3.9921875 1.99609375 1.99609375 c 1,8,-1
 0.998046875 1.99609375 l 1,4,-1
0 3.9990234375 m 1,9,10
 0 4.005859375 0 4.005859375 0 6.001953125 c 1,11,-1
 0.998046875 6.001953125 l 1,12,-1
 0.998046875 3.9990234375 l 1,13,-1
 0 3.9990234375 l 1,9,10
EndSplineSet
EndChar

StartChar: bracketright
Encoding: 93 93 62
Width: 3
GlyphClass: 1
Flags: W
LayerCount: 2
Fore
SplineSet
0 -0.998046875 m 1,0,-1
 0 0 l 1,1,-1
 0.998046875 0 l 1,2,-1
 0.998046875 4.9970703125 l 1,3,-1
 0 4.9970703125 l 1,4,5
 0 5.00390625 0 5.00390625 0 6.001953125 c 1,6,-1
 1.99609375 6.001953125 l 1,7,-1
 1.99609375 -0.998046875 l 1,8,-1
 0 -0.998046875 l 1,0,-1
EndSplineSet
EndChar

StartChar: asciicircum
Encoding: 94 94 63
Width: 6
GlyphClass: 1
Flags: W
LayerCount: 2
Fore
SplineSet
0 2.994140625 m 1,0,-1
 0 3.9990234375 l 1,1,-1
 0.998046875 3.9990234375 l 1,2,3
 0.998046875 3.9921875 0.998046875 3.9921875 0.998046875 2.994140625 c 1,4,-1
 0 2.994140625 l 1,0,-1
3.9990234375 2.994140625 m 1,5,-1
 3.9990234375 3.9990234375 l 1,6,-1
 4.9970703125 3.9990234375 l 1,7,8
 4.9970703125 3.9921875 4.9970703125 3.9921875 4.9970703125 2.994140625 c 1,9,-1
 3.9990234375 2.994140625 l 1,5,-1
0.998046875 3.9990234375 m 1,10,-1
 0.998046875 4.9970703125 l 1,11,-1
 1.99609375 4.9970703125 l 1,12,-1
 1.99609375 3.9990234375 l 1,13,-1
 0.998046875 3.9990234375 l 1,10,-1
2.994140625 3.9990234375 m 1,14,-1
 2.994140625 4.9970703125 l 1,15,-1
 3.9990234375 4.9970703125 l 1,16,-1
 3.9990234375 3.9990234375 l 1,17,-1
 2.994140625 3.9990234375 l 1,14,-1
1.99609375 4.9970703125 m 1,18,19
 1.99609375 5.00390625 1.99609375 5.00390625 1.99609375 6.001953125 c 1,20,-1
 2.994140625 6.001953125 l 1,21,-1
 2.994140625 4.9970703125 l 1,22,-1
 1.99609375 4.9970703125 l 1,18,19
EndSplineSet
EndChar

StartChar: underscore
Encoding: 95 95 64
Width: 5
GlyphClass: 1
Flags: W
LayerCount: 2
Fore
SplineSet
0 -0.998046875 m 1,0,-1
 0 0 l 1,1,-1
 3.9990234375 0 l 1,2,-1
 3.9990234375 -0.998046875 l 1,3,-1
 0 -0.998046875 l 1,0,-1
EndSplineSet
EndChar

StartChar: grave
Encoding: 96 96 65
Width: 3
GlyphClass: 1
Flags: W
LayerCount: 2
Fore
SplineSet
0.998046875 3.9990234375 m 1,0,-1
 0.998046875 4.9970703125 l 1,1,-1
 1.99609375 4.9970703125 l 1,2,-1
 1.99609375 3.9990234375 l 1,3,-1
 0.998046875 3.9990234375 l 1,0,-1
0 4.9970703125 m 1,4,5
 0 5.00390625 0 5.00390625 0 6.001953125 c 1,6,-1
 0.998046875 6.001953125 l 1,7,-1
 0.998046875 4.9970703125 l 1,8,-1
 0 4.9970703125 l 1,4,5
EndSplineSet
EndChar

StartChar: a
Encoding: 97 97 66
Width: 5
GlyphClass: 1
Flags: W
LayerCount: 2
Fore
SplineSet
0 0.998046875 m 1,0,-1
 0 3.9990234375 l 1,1,-1
 0.998046875 3.9990234375 l 1,2,-1
 0.998046875 0.998046875 l 1,3,-1
 0 0.998046875 l 1,0,-1
0.998046875 0 m 1,4,-1
 0.998046875 0.998046875 l 1,5,-1
 2.994140625 0.998046875 l 1,6,-1
 2.994140625 3.9990234375 l 1,7,-1
 0.998046875 3.9990234375 l 1,8,-1
 0.998046875 4.9970703125 l 1,9,-1
 3.9990234375 4.9970703125 l 1,10,-1
 3.9990234375 0 l 1,11,-1
 0.998046875 0 l 1,4,-1
EndSplineSet
EndChar

StartChar: b
Encoding: 98 98 67
Width: 5
GlyphClass: 1
Flags: W
LayerCount: 2
Fore
SplineSet
2.994140625 0.998046875 m 1,0,-1
 2.994140625 3.9990234375 l 1,1,-1
 3.9990234375 3.9990234375 l 1,2,-1
 3.9990234375 0.998046875 l 1,3,-1
 2.994140625 0.998046875 l 1,0,-1
0 0 m 1,4,-1
 0 6.001953125 l 1,5,-1
 0.998046875 6.001953125 l 1,6,-1
 0.998046875 4.9970703125 l 1,7,-1
 2.994140625 4.9970703125 l 1,8,-1
 2.994140625 3.9990234375 l 1,9,-1
 0.998046875 3.9990234375 l 1,10,-1
 0.998046875 0.998046875 l 1,11,-1
 2.994140625 0.998046875 l 1,12,-1
 2.994140625 0 l 1,13,-1
 0 0 l 1,4,-1
EndSplineSet
EndChar

StartChar: c
Encoding: 99 99 68
Width: 5
GlyphClass: 1
Flags: W
LayerCount: 2
Fore
SplineSet
0.998046875 0 m 1,0,-1
 0.998046875 0.998046875 l 1,1,-1
 2.994140625 0.998046875 l 1,2,-1
 2.994140625 0 l 1,3,-1
 0.998046875 0 l 1,0,-1
2.994140625 0.998046875 m 1,4,-1
 2.994140625 1.99609375 l 1,5,-1
 3.9990234375 1.99609375 l 1,6,-1
 3.9990234375 0.998046875 l 1,7,-1
 2.994140625 0.998046875 l 1,4,-1
0 0.998046875 m 1,8,-1
 0 3.9990234375 l 1,9,-1
 0.998046875 3.9990234375 l 1,10,-1
 0.998046875 0.998046875 l 1,11,-1
 0 0.998046875 l 1,8,-1
2.994140625 2.994140625 m 1,12,-1
 2.994140625 3.9990234375 l 1,13,-1
 3.9990234375 3.9990234375 l 1,14,15
 3.9990234375 3.9921875 3.9990234375 3.9921875 3.9990234375 2.994140625 c 1,16,-1
 2.994140625 2.994140625 l 1,12,-1
0.998046875 3.9990234375 m 1,17,-1
 0.998046875 4.9970703125 l 1,18,-1
 2.994140625 4.9970703125 l 1,19,-1
 2.994140625 3.9990234375 l 1,20,-1
 0.998046875 3.9990234375 l 1,17,-1
EndSplineSet
EndChar

StartChar: d
Encoding: 100 100 69
Width: 5
GlyphClass: 1
Flags: W
LayerCount: 2
Fore
SplineSet
0 0.998046875 m 1,0,-1
 0 3.9990234375 l 1,1,-1
 0.998046875 3.9990234375 l 1,2,-1
 0.998046875 0.998046875 l 1,3,-1
 0 0.998046875 l 1,0,-1
0.998046875 0 m 1,4,-1
 0.998046875 0.998046875 l 1,5,-1
 2.994140625 0.998046875 l 1,6,-1
 2.994140625 3.9990234375 l 1,7,-1
 0.998046875 3.9990234375 l 1,8,-1
 0.998046875 4.9970703125 l 1,9,-1
 2.994140625 4.9970703125 l 1,10,11
 2.994140625 5.00390625 2.994140625 5.00390625 2.994140625 6.001953125 c 1,12,-1
 3.9990234375 6.001953125 l 1,13,-1
 3.9990234375 0 l 1,14,-1
 0.998046875 0 l 1,4,-1
EndSplineSet
EndChar

StartChar: e
Encoding: 101 101 70
Width: 5
GlyphClass: 1
Flags: W
LayerCount: 2
Fore
SplineSet
0.998046875 0 m 1,0,-1
 0.998046875 0.998046875 l 1,1,-1
 3.9990234375 0.998046875 l 1,2,-1
 3.9990234375 0 l 1,3,-1
 0.998046875 0 l 1,0,-1
0 0.998046875 m 1,4,-1
 0 3.9990234375 l 1,5,-1
 0.998046875 3.9990234375 l 1,6,7
 0.998046875 3.9921875 0.998046875 3.9921875 0.998046875 2.994140625 c 1,8,-1
 2.994140625 2.994140625 l 1,9,-1
 2.994140625 3.9990234375 l 1,10,-1
 3.9990234375 3.9990234375 l 1,11,12
 3.9990234375 3.9921875 3.9990234375 3.9921875 3.9990234375 1.99609375 c 1,13,-1
 0.998046875 1.99609375 l 1,14,-1
 0.998046875 0.998046875 l 1,15,-1
 0 0.998046875 l 1,4,-1
0.998046875 3.9990234375 m 1,16,-1
 0.998046875 4.9970703125 l 1,17,-1
 2.994140625 4.9970703125 l 1,18,-1
 2.994140625 3.9990234375 l 1,19,-1
 0.998046875 3.9990234375 l 1,16,-1
EndSplineSet
EndChar

StartChar: f
Encoding: 102 102 71
Width: 4
GlyphClass: 1
Flags: W
LayerCount: 2
Fore
SplineSet
0 0 m 1,0,-1
 0 4.9970703125 l 1,1,-1
 0.998046875 4.9970703125 l 1,2,3
 0.998046875 4.990234375 0.998046875 4.990234375 0.998046875 2.994140625 c 1,4,-1
 2.994140625 2.994140625 l 1,5,-1
 2.994140625 1.99609375 l 1,6,-1
 0.998046875 1.99609375 l 1,7,-1
 0.998046875 0 l 1,8,-1
 0 0 l 1,0,-1
0.998046875 4.9970703125 m 1,9,10
 0.998046875 5.00390625 0.998046875 5.00390625 0.998046875 6.001953125 c 1,11,-1
 2.994140625 6.001953125 l 1,12,-1
 2.994140625 4.9970703125 l 1,13,-1
 0.998046875 4.9970703125 l 1,9,10
EndSplineSet
EndChar

StartChar: g
Encoding: 103 103 72
Width: 5
GlyphClass: 1
Flags: W
LayerCount: 2
Fore
SplineSet
0 -0.998046875 m 1,0,-1
 0 0 l 1,1,-1
 2.994140625 0 l 1,2,-1
 2.994140625 -0.998046875 l 1,3,-1
 0 -0.998046875 l 1,0,-1
0 1.99609375 m 1,4,-1
 0 3.9990234375 l 1,5,-1
 0.998046875 3.9990234375 l 1,6,7
 0.998046875 3.9921875 0.998046875 3.9921875 0.998046875 1.99609375 c 1,8,-1
 0 1.99609375 l 1,4,-1
2.994140625 0 m 1,9,-1
 2.994140625 0.998046875 l 1,10,-1
 0.998046875 0.998046875 l 1,11,-1
 0.998046875 1.99609375 l 1,12,-1
 2.994140625 1.99609375 l 1,13,-1
 2.994140625 3.9990234375 l 1,14,-1
 0.998046875 3.9990234375 l 1,15,-1
 0.998046875 4.9970703125 l 1,16,-1
 3.9990234375 4.9970703125 l 1,17,-1
 3.9990234375 0 l 1,18,-1
 2.994140625 0 l 1,9,-1
EndSplineSet
EndChar

StartChar: h
Encoding: 104 104 73
Width: 5
GlyphClass: 1
Flags: W
LayerCount: 2
Fore
SplineSet
2.994140625 0 m 1,0,-1
 2.994140625 2.994140625 l 1,1,-1
 3.9990234375 2.994140625 l 1,2,-1
 3.9990234375 0 l 1,3,-1
 2.994140625 0 l 1,0,-1
0 0 m 1,4,-1
 0 6.001953125 l 1,5,-1
 0.998046875 6.001953125 l 1,6,-1
 0.998046875 3.9990234375 l 1,7,-1
 2.994140625 3.9990234375 l 1,8,9
 2.994140625 3.9921875 2.994140625 3.9921875 2.994140625 2.994140625 c 1,10,-1
 0.998046875 2.994140625 l 1,11,-1
 0.998046875 0 l 1,12,-1
 0 0 l 1,4,-1
EndSplineSet
EndChar

StartChar: i
Encoding: 105 105 74
Width: 2
GlyphClass: 1
Flags: W
LayerCount: 2
Fore
SplineSet
0 0 m 1,0,-1
 0 3.9990234375 l 1,1,-1
 0.998046875 3.9990234375 l 1,2,-1
 0.998046875 0 l 1,3,-1
 0 0 l 1,0,-1
0 4.9970703125 m 1,4,5
 0 5.00390625 0 5.00390625 0 6.001953125 c 1,6,-1
 0.998046875 6.001953125 l 1,7,-1
 0.998046875 4.9970703125 l 1,8,-1
 0 4.9970703125 l 1,4,5
EndSplineSet
EndChar

StartChar: j
Encoding: 106 106 75
Width: 4
GlyphClass: 1
Flags: W
LayerCount: 2
Fore
SplineSet
0 0 m 1,0,-1
 0 0.998046875 l 1,1,-1
 1.99609375 0.998046875 l 1,2,-1
 1.99609375 0 l 1,3,-1
 0 0 l 1,0,-1
1.99609375 0.998046875 m 1,4,-1
 1.99609375 2.994140625 l 1,5,-1
 0.998046875 2.994140625 l 1,6,-1
 0.998046875 3.9990234375 l 1,7,-1
 2.994140625 3.9990234375 l 1,8,-1
 2.994140625 0.998046875 l 1,9,-1
 1.99609375 0.998046875 l 1,4,-1
1.99609375 4.9970703125 m 1,10,11
 1.99609375 5.00390625 1.99609375 5.00390625 1.99609375 6.001953125 c 1,12,-1
 2.994140625 6.001953125 l 1,13,-1
 2.994140625 4.9970703125 l 1,14,-1
 1.99609375 4.9970703125 l 1,10,11
EndSplineSet
EndChar

StartChar: k
Encoding: 107 107 76
Width: 5
GlyphClass: 1
Flags: W
LayerCount: 2
Fore
SplineSet
2.994140625 0 m 1,0,-1
 2.994140625 0.998046875 l 1,1,-1
 3.9990234375 0.998046875 l 1,2,-1
 3.9990234375 0 l 1,3,-1
 2.994140625 0 l 1,0,-1
1.99609375 0.998046875 m 1,4,-1
 1.99609375 1.99609375 l 1,5,-1
 2.994140625 1.99609375 l 1,6,-1
 2.994140625 0.998046875 l 1,7,-1
 1.99609375 0.998046875 l 1,4,-1
1.99609375 2.994140625 m 1,8,-1
 1.99609375 3.9990234375 l 1,9,-1
 2.994140625 3.9990234375 l 1,10,11
 2.994140625 3.9921875 2.994140625 3.9921875 2.994140625 2.994140625 c 1,12,-1
 1.99609375 2.994140625 l 1,8,-1
2.994140625 3.9990234375 m 1,13,-1
 2.994140625 4.9970703125 l 1,14,-1
 3.9990234375 4.9970703125 l 1,15,-1
 3.9990234375 3.9990234375 l 1,16,-1
 2.994140625 3.9990234375 l 1,13,-1
0 0 m 1,17,-1
 0 6.001953125 l 1,18,-1
 0.998046875 6.001953125 l 1,19,-1
 0.998046875 2.994140625 l 1,20,-1
 1.99609375 2.994140625 l 1,21,-1
 1.99609375 1.99609375 l 1,22,-1
 0.998046875 1.99609375 l 1,23,-1
 0.998046875 0 l 1,24,-1
 0 0 l 1,17,-1
EndSplineSet
EndChar

StartChar: l
Encoding: 108 108 77
Width: 2
GlyphClass: 1
Flags: W
LayerCount: 2
Fore
SplineSet
0 0 m 1,0,-1
 0 6.001953125 l 1,1,-1
 0.998046875 6.001953125 l 1,2,-1
 0.998046875 0 l 1,3,-1
 0 0 l 1,0,-1
EndSplineSet
EndChar

StartChar: m
Encoding: 109 109 78
Width: 6
GlyphClass: 1
Flags: W
LayerCount: 2
Fore
SplineSet
3.9990234375 0 m 1,0,-1
 3.9990234375 3.9990234375 l 1,1,-1
 4.9970703125 3.9990234375 l 1,2,-1
 4.9970703125 0 l 1,3,-1
 3.9990234375 0 l 1,0,-1
0 0 m 1,4,-1
 0 4.9970703125 l 1,5,-1
 3.9990234375 4.9970703125 l 1,6,-1
 3.9990234375 3.9990234375 l 1,7,8
 3.9921875 3.9990234375 3.9921875 3.9990234375 2.994140625 3.9990234375 c 1,9,-1
 2.994140625 0 l 1,10,-1
 1.99609375 0 l 1,11,-1
 1.99609375 3.9990234375 l 1,12,-1
 0.998046875 3.9990234375 l 1,13,-1
 0.998046875 0 l 1,14,-1
 0 0 l 1,4,-1
EndSplineSet
EndChar

StartChar: n
Encoding: 110 110 79
Width: 5
GlyphClass: 1
Flags: W
LayerCount: 2
Fore
SplineSet
2.994140625 0 m 1,0,-1
 2.994140625 3.9990234375 l 1,1,-1
 3.9990234375 3.9990234375 l 1,2,-1
 3.9990234375 0 l 1,3,-1
 2.994140625 0 l 1,0,-1
0 0 m 1,4,-1
 0 4.9970703125 l 1,5,-1
 2.994140625 4.9970703125 l 1,6,-1
 2.994140625 3.9990234375 l 1,7,-1
 0.998046875 3.9990234375 l 1,8,-1
 0.998046875 0 l 1,9,-1
 0 0 l 1,4,-1
EndSplineSet
EndChar

StartChar: o
Encoding: 111 111 80
Width: 5
GlyphClass: 1
Flags: W
LayerCount: 2
Fore
SplineSet
0.998046875 0 m 1,0,-1
 0.998046875 0.998046875 l 1,1,-1
 2.994140625 0.998046875 l 1,2,-1
 2.994140625 0 l 1,3,-1
 0.998046875 0 l 1,0,-1
0 0.998046875 m 1,4,-1
 0 3.9990234375 l 1,5,-1
 0.998046875 3.9990234375 l 1,6,-1
 0.998046875 0.998046875 l 1,7,-1
 0 0.998046875 l 1,4,-1
2.994140625 0.998046875 m 1,8,-1
 2.994140625 3.9990234375 l 1,9,-1
 3.9990234375 3.9990234375 l 1,10,-1
 3.9990234375 0.998046875 l 1,11,-1
 2.994140625 0.998046875 l 1,8,-1
0.998046875 3.9990234375 m 1,12,-1
 0.998046875 4.9970703125 l 1,13,-1
 2.994140625 4.9970703125 l 1,14,-1
 2.994140625 3.9990234375 l 1,15,-1
 0.998046875 3.9990234375 l 1,12,-1
EndSplineSet
EndChar

StartChar: p
Encoding: 112 112 81
Width: 5
GlyphClass: 1
Flags: W
LayerCount: 2
Fore
SplineSet
2.994140625 1.99609375 m 1,0,-1
 2.994140625 3.9990234375 l 1,1,-1
 3.9990234375 3.9990234375 l 1,2,3
 3.9990234375 3.9921875 3.9990234375 3.9921875 3.9990234375 1.99609375 c 1,4,-1
 2.994140625 1.99609375 l 1,0,-1
0 -0.998046875 m 1,5,-1
 0 4.9970703125 l 1,6,-1
 2.994140625 4.9970703125 l 1,7,-1
 2.994140625 3.9990234375 l 1,8,-1
 0.998046875 3.9990234375 l 1,9,10
 0.998046875 3.9921875 0.998046875 3.9921875 0.998046875 1.99609375 c 1,11,-1
 2.994140625 1.99609375 l 1,12,-1
 2.994140625 0.998046875 l 1,13,-1
 0.998046875 0.998046875 l 1,14,-1
 0.998046875 -0.998046875 l 1,15,-1
 0 -0.998046875 l 1,5,-1
EndSplineSet
EndChar

StartChar: q
Encoding: 113 113 82
Width: 5
GlyphClass: 1
Flags: W
LayerCount: 2
Fore
SplineSet
0 1.99609375 m 1,0,-1
 0 3.9990234375 l 1,1,-1
 0.998046875 3.9990234375 l 1,2,3
 0.998046875 3.9921875 0.998046875 3.9921875 0.998046875 1.99609375 c 1,4,-1
 0 1.99609375 l 1,0,-1
2.994140625 -0.998046875 m 1,5,-1
 2.994140625 0.998046875 l 1,6,-1
 0.998046875 0.998046875 l 1,7,-1
 0.998046875 1.99609375 l 1,8,-1
 2.994140625 1.99609375 l 1,9,-1
 2.994140625 3.9990234375 l 1,10,-1
 0.998046875 3.9990234375 l 1,11,-1
 0.998046875 4.9970703125 l 1,12,-1
 3.9990234375 4.9970703125 l 1,13,-1
 3.9990234375 -0.998046875 l 1,14,-1
 2.994140625 -0.998046875 l 1,5,-1
EndSplineSet
EndChar

StartChar: r
Encoding: 114 114 83
Width: 5
GlyphClass: 1
Flags: W
LayerCount: 2
Fore
SplineSet
2.994140625 2.994140625 m 1,0,-1
 2.994140625 3.9990234375 l 1,1,-1
 3.9990234375 3.9990234375 l 1,2,3
 3.9990234375 3.9921875 3.9990234375 3.9921875 3.9990234375 2.994140625 c 1,4,-1
 2.994140625 2.994140625 l 1,0,-1
0 0 m 1,5,-1
 0 4.9970703125 l 1,6,-1
 2.994140625 4.9970703125 l 1,7,-1
 2.994140625 3.9990234375 l 1,8,-1
 0.998046875 3.9990234375 l 1,9,-1
 0.998046875 0 l 1,10,-1
 0 0 l 1,5,-1
EndSplineSet
EndChar

StartChar: s
Encoding: 115 115 84
Width: 4
GlyphClass: 1
Flags: W
LayerCount: 2
Fore
SplineSet
0 0 m 1,0,-1
 0 0.998046875 l 1,1,-1
 1.99609375 0.998046875 l 1,2,-1
 1.99609375 0 l 1,3,-1
 0 0 l 1,0,-1
1.99609375 0.998046875 m 1,4,-1
 1.99609375 1.99609375 l 1,5,-1
 2.994140625 1.99609375 l 1,6,-1
 2.994140625 0.998046875 l 1,7,-1
 1.99609375 0.998046875 l 1,4,-1
0.998046875 1.99609375 m 1,8,-1
 0.998046875 2.994140625 l 1,9,-1
 1.99609375 2.994140625 l 1,10,-1
 1.99609375 1.99609375 l 1,11,-1
 0.998046875 1.99609375 l 1,8,-1
0 2.994140625 m 1,12,-1
 0 3.9990234375 l 1,13,-1
 0.998046875 3.9990234375 l 1,14,15
 0.998046875 3.9921875 0.998046875 3.9921875 0.998046875 2.994140625 c 1,16,-1
 0 2.994140625 l 1,12,-1
0.998046875 3.9990234375 m 1,17,-1
 0.998046875 4.9970703125 l 1,18,-1
 2.994140625 4.9970703125 l 1,19,-1
 2.994140625 3.9990234375 l 1,20,-1
 0.998046875 3.9990234375 l 1,17,-1
EndSplineSet
EndChar

StartChar: t
Encoding: 116 116 85
Width: 4
GlyphClass: 1
Flags: W
LayerCount: 2
Fore
SplineSet
0.998046875 0 m 1,0,-1
 0.998046875 0.998046875 l 1,1,-1
 2.994140625 0.998046875 l 1,2,-1
 2.994140625 0 l 1,3,-1
 0.998046875 0 l 1,0,-1
0 0.998046875 m 1,4,-1
 0 6.001953125 l 1,5,-1
 0.998046875 6.001953125 l 1,6,-1
 0.998046875 3.9990234375 l 1,7,-1
 2.994140625 3.9990234375 l 1,8,9
 2.994140625 3.9921875 2.994140625 3.9921875 2.994140625 2.994140625 c 1,10,-1
 0.998046875 2.994140625 l 1,11,-1
 0.998046875 0.998046875 l 1,12,-1
 0 0.998046875 l 1,4,-1
EndSplineSet
EndChar

StartChar: u
Encoding: 117 117 86
Width: 5
GlyphClass: 1
Flags: W
LayerCount: 2
Fore
SplineSet
0 0.998046875 m 1,0,-1
 0 4.9970703125 l 1,1,-1
 0.998046875 4.9970703125 l 1,2,-1
 0.998046875 0.998046875 l 1,3,-1
 0 0.998046875 l 1,0,-1
0.998046875 0 m 1,4,-1
 0.998046875 0.998046875 l 1,5,-1
 2.994140625 0.998046875 l 1,6,-1
 2.994140625 4.9970703125 l 1,7,-1
 3.9990234375 4.9970703125 l 1,8,-1
 3.9990234375 0 l 1,9,-1
 0.998046875 0 l 1,4,-1
EndSplineSet
EndChar

StartChar: v
Encoding: 118 118 87
Width: 6
GlyphClass: 1
Flags: W
LayerCount: 2
Fore
SplineSet
1.99609375 0 m 1,0,-1
 1.99609375 0.998046875 l 1,1,-1
 2.994140625 0.998046875 l 1,2,-1
 2.994140625 0 l 1,3,-1
 1.99609375 0 l 1,0,-1
0.998046875 0.998046875 m 1,4,-1
 0.998046875 2.994140625 l 1,5,-1
 1.99609375 2.994140625 l 1,6,-1
 1.99609375 0.998046875 l 1,7,-1
 0.998046875 0.998046875 l 1,4,-1
2.994140625 0.998046875 m 1,8,-1
 2.994140625 2.994140625 l 1,9,-1
 3.9990234375 2.994140625 l 1,10,-1
 3.9990234375 0.998046875 l 1,11,-1
 2.994140625 0.998046875 l 1,8,-1
0 2.994140625 m 1,12,-1
 0 4.9970703125 l 1,13,-1
 0.998046875 4.9970703125 l 1,14,15
 0.998046875 4.990234375 0.998046875 4.990234375 0.998046875 2.994140625 c 1,16,-1
 0 2.994140625 l 1,12,-1
3.9990234375 2.994140625 m 1,17,-1
 3.9990234375 4.9970703125 l 1,18,-1
 4.9970703125 4.9970703125 l 1,19,20
 4.9970703125 4.990234375 4.9970703125 4.990234375 4.9970703125 2.994140625 c 1,21,-1
 3.9990234375 2.994140625 l 1,17,-1
EndSplineSet
EndChar

StartChar: w
Encoding: 119 119 88
Width: 6
GlyphClass: 1
Flags: W
LayerCount: 2
Fore
SplineSet
0.998046875 0 m 1,0,-1
 0.998046875 1.99609375 l 1,1,-1
 1.99609375 1.99609375 l 1,2,-1
 1.99609375 0 l 1,3,-1
 0.998046875 0 l 1,0,-1
2.994140625 0 m 1,4,-1
 2.994140625 1.99609375 l 1,5,-1
 3.9990234375 1.99609375 l 1,6,-1
 3.9990234375 0 l 1,7,-1
 2.994140625 0 l 1,4,-1
1.99609375 1.99609375 m 1,8,-1
 1.99609375 3.9990234375 l 1,9,-1
 2.994140625 3.9990234375 l 1,10,11
 2.994140625 3.9921875 2.994140625 3.9921875 2.994140625 1.99609375 c 1,12,-1
 1.99609375 1.99609375 l 1,8,-1
0 1.99609375 m 1,13,-1
 0 4.9970703125 l 1,14,-1
 0.998046875 4.9970703125 l 1,15,16
 0.998046875 4.990234375 0.998046875 4.990234375 0.998046875 1.99609375 c 1,17,-1
 0 1.99609375 l 1,13,-1
3.9990234375 1.99609375 m 1,18,-1
 3.9990234375 4.9970703125 l 1,19,-1
 4.9970703125 4.9970703125 l 1,20,21
 4.9970703125 4.990234375 4.9970703125 4.990234375 4.9970703125 1.99609375 c 1,22,-1
 3.9990234375 1.99609375 l 1,18,-1
EndSplineSet
EndChar

StartChar: x
Encoding: 120 120 89
Width: 6
GlyphClass: 1
Flags: W
LayerCount: 2
Fore
SplineSet
0 0 m 1,0,-1
 0 0.998046875 l 1,1,-1
 0.998046875 0.998046875 l 1,2,-1
 0.998046875 0 l 1,3,-1
 0 0 l 1,0,-1
3.9990234375 0 m 1,4,-1
 3.9990234375 0.998046875 l 1,5,-1
 4.9970703125 0.998046875 l 1,6,-1
 4.9970703125 0 l 1,7,-1
 3.9990234375 0 l 1,4,-1
0.998046875 0.998046875 m 1,8,-1
 0.998046875 1.99609375 l 1,9,-1
 1.99609375 1.99609375 l 1,10,-1
 1.99609375 0.998046875 l 1,11,-1
 0.998046875 0.998046875 l 1,8,-1
2.994140625 0.998046875 m 1,12,-1
 2.994140625 1.99609375 l 1,13,-1
 3.9990234375 1.99609375 l 1,14,-1
 3.9990234375 0.998046875 l 1,15,-1
 2.994140625 0.998046875 l 1,12,-1
1.99609375 1.99609375 m 1,16,-1
 1.99609375 2.994140625 l 1,17,-1
 2.994140625 2.994140625 l 1,18,-1
 2.994140625 1.99609375 l 1,19,-1
 1.99609375 1.99609375 l 1,16,-1
0.998046875 2.994140625 m 1,20,-1
 0.998046875 3.9990234375 l 1,21,-1
 1.99609375 3.9990234375 l 1,22,23
 1.99609375 3.9921875 1.99609375 3.9921875 1.99609375 2.994140625 c 1,24,-1
 0.998046875 2.994140625 l 1,20,-1
2.994140625 2.994140625 m 1,25,-1
 2.994140625 3.9990234375 l 1,26,-1
 3.9990234375 3.9990234375 l 1,27,28
 3.9990234375 3.9921875 3.9990234375 3.9921875 3.9990234375 2.994140625 c 1,29,-1
 2.994140625 2.994140625 l 1,25,-1
0 3.9990234375 m 1,30,-1
 0 4.9970703125 l 1,31,-1
 0.998046875 4.9970703125 l 1,32,-1
 0.998046875 3.9990234375 l 1,33,-1
 0 3.9990234375 l 1,30,-1
3.9990234375 3.9990234375 m 1,34,-1
 3.9990234375 4.9970703125 l 1,35,-1
 4.9970703125 4.9970703125 l 1,36,-1
 4.9970703125 3.9990234375 l 1,37,-1
 3.9990234375 3.9990234375 l 1,34,-1
EndSplineSet
EndChar

StartChar: y
Encoding: 121 121 90
Width: 5
GlyphClass: 1
Flags: W
LayerCount: 2
Fore
SplineSet
0 -0.998046875 m 1,0,-1
 0 0 l 1,1,-1
 2.994140625 0 l 1,2,-1
 2.994140625 -0.998046875 l 1,3,-1
 0 -0.998046875 l 1,0,-1
0 1.99609375 m 1,4,-1
 0 4.9970703125 l 1,5,-1
 0.998046875 4.9970703125 l 1,6,7
 0.998046875 4.990234375 0.998046875 4.990234375 0.998046875 1.99609375 c 1,8,-1
 0 1.99609375 l 1,4,-1
2.994140625 0 m 1,9,-1
 2.994140625 0.998046875 l 1,10,-1
 0.998046875 0.998046875 l 1,11,-1
 0.998046875 1.99609375 l 1,12,-1
 2.994140625 1.99609375 l 1,13,-1
 2.994140625 4.9970703125 l 1,14,-1
 3.9990234375 4.9970703125 l 1,15,-1
 3.9990234375 0 l 1,16,-1
 2.994140625 0 l 1,9,-1
EndSplineSet
EndChar

StartChar: z
Encoding: 122 122 91
Width: 5
GlyphClass: 1
Flags: W
LayerCount: 2
Fore
SplineSet
0 0 m 1,0,-1
 0 0.998046875 l 1,1,-1
 0.998046875 0.998046875 l 1,2,-1
 0.998046875 1.99609375 l 1,3,-1
 1.99609375 1.99609375 l 1,4,-1
 1.99609375 0.998046875 l 1,5,-1
 3.9990234375 0.998046875 l 1,6,-1
 3.9990234375 0 l 1,7,-1
 0 0 l 1,0,-1
1.99609375 1.99609375 m 1,8,-1
 1.99609375 2.994140625 l 1,9,-1
 2.994140625 2.994140625 l 1,10,-1
 2.994140625 1.99609375 l 1,11,-1
 1.99609375 1.99609375 l 1,8,-1
2.994140625 2.994140625 m 1,12,-1
 2.994140625 3.9990234375 l 1,13,-1
 0 3.9990234375 l 1,14,-1
 0 4.9970703125 l 1,15,-1
 3.9990234375 4.9970703125 l 1,16,17
 3.9990234375 4.990234375 3.9990234375 4.990234375 3.9990234375 2.994140625 c 1,18,-1
 2.994140625 2.994140625 l 1,12,-1
EndSplineSet
EndChar

StartChar: braceleft
Encoding: 123 123 92
Width: 4
GlyphClass: 1
Flags: W
LayerCount: 2
Fore
SplineSet
1.99609375 -0.998046875 m 1,0,-1
 1.99609375 0 l 1,1,-1
 2.994140625 0 l 1,2,-1
 2.994140625 -0.998046875 l 1,3,-1
 1.99609375 -0.998046875 l 1,0,-1
0.998046875 0 m 1,4,-1
 0.998046875 1.99609375 l 1,5,-1
 1.99609375 1.99609375 l 1,6,-1
 1.99609375 0 l 1,7,-1
 0.998046875 0 l 1,4,-1
0 1.99609375 m 1,8,-1
 0 2.994140625 l 1,9,-1
 0.998046875 2.994140625 l 1,10,-1
 0.998046875 1.99609375 l 1,11,-1
 0 1.99609375 l 1,8,-1
0.998046875 2.994140625 m 1,12,-1
 0.998046875 4.9970703125 l 1,13,-1
 1.99609375 4.9970703125 l 1,14,15
 1.99609375 4.990234375 1.99609375 4.990234375 1.99609375 2.994140625 c 1,16,-1
 0.998046875 2.994140625 l 1,12,-1
1.99609375 4.9970703125 m 1,17,18
 1.99609375 5.00390625 1.99609375 5.00390625 1.99609375 6.001953125 c 1,19,-1
 2.994140625 6.001953125 l 1,20,-1
 2.994140625 4.9970703125 l 1,21,-1
 1.99609375 4.9970703125 l 1,17,18
EndSplineSet
EndChar

StartChar: bar
Encoding: 124 124 93
Width: 2
GlyphClass: 1
Flags: W
LayerCount: 2
Fore
SplineSet
0 -0.998046875 m 1,0,-1
 0 6.001953125 l 1,1,-1
 0.998046875 6.001953125 l 1,2,-1
 0.998046875 -0.998046875 l 1,3,-1
 0 -0.998046875 l 1,0,-1
EndSplineSet
EndChar

StartChar: braceright
Encoding: 125 125 94
Width: 4
GlyphClass: 1
Flags: W
LayerCount: 2
Fore
SplineSet
0 -0.998046875 m 1,0,-1
 0 0 l 1,1,-1
 0.998046875 0 l 1,2,-1
 0.998046875 -0.998046875 l 1,3,-1
 0 -0.998046875 l 1,0,-1
0.998046875 0 m 1,4,-1
 0.998046875 1.99609375 l 1,5,-1
 1.99609375 1.99609375 l 1,6,-1
 1.99609375 0 l 1,7,-1
 0.998046875 0 l 1,4,-1
1.99609375 1.99609375 m 1,8,-1
 1.99609375 2.994140625 l 1,9,-1
 2.994140625 2.994140625 l 1,10,-1
 2.994140625 1.99609375 l 1,11,-1
 1.99609375 1.99609375 l 1,8,-1
0.998046875 2.994140625 m 1,12,-1
 0.998046875 4.9970703125 l 1,13,-1
 1.99609375 4.9970703125 l 1,14,15
 1.99609375 4.990234375 1.99609375 4.990234375 1.99609375 2.994140625 c 1,16,-1
 0.998046875 2.994140625 l 1,12,-1
0 4.9970703125 m 1,17,18
 0 5.00390625 0 5.00390625 0 6.001953125 c 1,19,-1
 0.998046875 6.001953125 l 1,20,-1
 0.998046875 4.9970703125 l 1,21,-1
 0 4.9970703125 l 1,17,18
EndSplineSet
EndChar

StartChar: asciitilde
Encoding: 126 126 95
Width: 5
GlyphClass: 1
Flags: W
LayerCount: 2
Fore
SplineSet
0 1.99609375 m 1,0,-1
 0 2.994140625 l 1,1,-1
 0.998046875 2.994140625 l 1,2,-1
 0.998046875 1.99609375 l 1,3,-1
 0 1.99609375 l 1,0,-1
1.99609375 1.99609375 m 1,4,-1
 1.99609375 2.994140625 l 1,5,-1
 2.994140625 2.994140625 l 1,6,-1
 2.994140625 1.99609375 l 1,7,-1
 1.99609375 1.99609375 l 1,4,-1
0.998046875 2.994140625 m 1,8,-1
 0.998046875 3.9990234375 l 1,9,-1
 1.99609375 3.9990234375 l 1,10,11
 1.99609375 3.9921875 1.99609375 3.9921875 1.99609375 2.994140625 c 1,12,-1
 0.998046875 2.994140625 l 1,8,-1
2.994140625 2.994140625 m 1,13,-1
 2.994140625 3.9990234375 l 1,14,-1
 3.9990234375 3.9990234375 l 1,15,16
 3.9990234375 3.9921875 3.9990234375 3.9921875 3.9990234375 2.994140625 c 1,17,-1
 2.994140625 2.994140625 l 1,13,-1
EndSplineSet
EndChar
